<?xml version="1.0" encoding="UTF-8"?><svg id="Lager_2" xmlns="http://www.w3.org/2000/svg" viewBox="0 0 449.49 269.46"><defs><style>.cls-1{fill:#0f0f0f;}.cls-2{fill:#0a0a0a;}</style></defs><path class="cls-2" d="M42.9,48.91s-32.58,1.71-37.15,1.14S.6,48.34,.03,44.33s7.43-8.57,7.43-8.57c0,0,32.01-3.43,45.16-5.14s30.87-4.57,30.87-4.57c0,0,104.96-18.66,113.61-19.3s11.21,.64,16.02,5.45,6.09,23.38,6.09,23.38l-.96,119.16s190.28-24.35,197.33-24.67,9.29,.96,9.29,.96c0,.32-.32,2.56-6.8,6.1s-27.69,11.78-47.14,16.5-60.69,10.61-60.69,10.61l-93.25,11.22s-.86,16.58-3.72,45.17-6.29,24.3-17.72,37.73-37.16,10.86-54.88,7.72-45.45-17.01-60.6-27.3-20.3-20.01-22.58-26.01,.57-16.01,10.86-24.3,25.16-13.15,43.16-17.15,91.05-15.18,91.05-15.18V85.98c0-23.49-1.43-55.32-1.57-59.27s-7.33-1.69-7.33-1.69l-18.19,3.53-111.18,18.94-21.36,1.43ZM120.64,190.09c-18.86,4-33.15,8.57-41.73,12.58s-5.14,9.15-2.86,13.13,13.72,11.45,28.58,20.03,41.73,14.86,50.3,16.58,18.29-1.14,24.58-2.86,8-7.43,14.29-22.86,4.57-48.01,4.57-48.01c0,0-58.87,7.43-77.74,11.43Z"/><g id="Lager_4"><path class="cls-2" d="M232.66,130.08s.76-67.65,0-87.14,0-29.9,0-29.9c0,0-1.12,.42-1.12-2.01s.57-3.7,1.92-4.79,3.32-3.06,8.75-3.64,62.79-2.08,62.79-2.08c0,0,31.83-1.17,46.05,0,14.23,1.17,29.19,2.2,37.99,8.07s13.79,8.8,13.2,18.48-5.28,16.87-13.64,22.29-17.31,10.27-28.89,13.64c-11.59,3.37-33,6.89-49.72,8.51-16.72,1.61-32.56,1.47-40.04,0s-8.8-2.05-8.8-3.37,3.67-3.96,8.51-5.28,11.29-3.23,18.19-4.4,26.4-3.81,31.53-4.25,25.96-3.67,30.8-4.69,17.45-5.72,20.53-7.48,10.85-7.48,13.05-9.68,2.64-3.08,2.49-4.99-2.64-4.84-6.6-6.01-12.91-3.81-19.95-4.25c-7.04-.44-4.99-1.32-12.47-1.32s-88.15,1.03-88.15,1.03l-15.55,.29s2.79,7.63,3.23,14.08,1.03,23.76,1.17,37.11-.29,30.21-.73,44.29-1.17,22.73-1.17,22.73c0,0-.88,8.43-6.16,8.29s-7.22-13.52-7.22-13.52Z"/><path class="cls-2" d="M147.77,267.21s13.1,2.41,19.69,2.24,15.55-1.07,20.9-3.24-16.9-3.68-16.9-3.68l-23.69,4.69Z"/></g><g id="Lager_5"><path class="cls-1" d="M444.19,140.45s-7.05-.98-5.9-6.39,5.9-5.41,5.9-5.41c0,0,6.56,.82,5.08,5.9s-5.08,5.9-5.08,5.9Z"/></g><g id="Lager_6"><path class="cls-2" d="M171.46,268.35s9.57-.68,15-1.71,8.75-3.1,12.13-6.46,7.26-10.34,7.26-10.34c0,0,4.32-6.21,5.75-16.58"/></g></svg>