<?xml version="1.0" encoding="UTF-8"?><svg id="Lager_1" xmlns="http://www.w3.org/2000/svg" xmlns:xlink="http://www.w3.org/1999/xlink" viewBox="0 0 709.25 2090"><defs><style>.cls-1{fill:#676767;}.cls-2{fill:#faffe3;}.cls-3{fill:#fff;}.cls-4{fill:#ff0;}.cls-5{fill:#c1c1c1;}.cls-6{fill:#30afd1;}.cls-7{fill:#43918b;}.cls-8{fill:#545454;}.cls-9{fill:#36fff5;}.cls-10{fill:#77776e;}.cls-11{fill:url(#Namnlös_övertoning_6);}</style><linearGradient id="Namnlös_övertoning_6" x1="179.49" y1="281.13" x2="486.81" y2="281.13" gradientUnits="userSpaceOnUse"><stop offset="0" stop-color="#fff"/><stop offset="1" stop-color="#f2ffaa"/></linearGradient></defs><path class="cls-6" d="m116.68,1073.56l3.53,102.27,6.94,61.25s.4,32.26,3.87,53.49,12.87,102.09,12.87,102.09c0,0,8.17,41.99,15.52,77.96s5.72,108.25,5.72,108.25c0,0,26.39,94.93,19.16,154.05s-44.99,193.81-44.99,193.81c0,0,60.13,12.86,110.73,13.01s85.75,1.18,86.61-16.84-12.24-103.99-12.24-103.99c0,0,6.45-132.1-.28-203.08s-1.65-210.18,2.12-259.82,10.43,8.18,10.43,8.18l9.74,75.07,1.95,69.2s31.09,98.69,25.05,139.68-15.18,147.14-12.16,168.35,18.74,145.44,18.74,145.44l1.06,15.38s102.2,17.59,140.78,9.22,53.64-9.53,53.64-9.53c0,0-24.2-95.91-31.6-135.19s-2.46-94.74-2.46-94.74l-17.42-176.8s-22.24-62.55-19.38-81.93,20.44-159.16,20.44-159.16l6.9-125.83,1.92-76.48-15.32-74.85"/><path class="cls-11" d="m261.89,411.52l-17.68,11.79-18.66,26.52-5.89,40.27,267.15,11.79v-68.75l-41.25-21.61,1.96-8.84-39.29-38.31-11.79-133.58,7.86,11.79,14.73-1.96,14.73-18.66,3.93-40.27-8.84-26.52h-18.66l-18.15-17.94-15.83-18.15-8.5-27.03-16.99-14.67-12.74-9.27-18.92-7.72h-62.94l-23.55,13.52-26.26,18.92-23.55,33.98-2.32,16.6,4.25,28.57,5.02,34.75s.39,12.74-2.7,20.47-10.04,32.82-6.56,39.77,19.69,50.2,32.44,66.42,32.05,46.72,50.97,50.97,7.2,12.05,7.2,12.05l-9.16,15.1Z"/><path class="cls-5" d="m293.4,474.11s12.81,7.32,25.02,7.32,46.98-3.66,53.08-7.32,35.86,53.73,35.86,53.73l58.08,549.18s-57.29,24.36-74.51,26.98-118.69,11.98-135.92,0,4.41-630.06,4.41-630.06"/><path class="cls-4" d="m173.85,142.35s7.88,6.64,15.46,3.79c7.58-2.84,20.61-15.8,21.83-21.18s2.73-28.44,14.25-34.13c11.52-5.69,21.83-14.54,31.53-12.33,9.7,2.21,41.84,21.81,51.23,8.85,9.4-12.96,33.95-11.38,33.95-11.38,0,0,22.43,17.38,25.16,24.65s7.28,20.86,13.34,28.44,11.52,13.59,11.52,13.59c0,0,40.62.95,29.41-22.44s-23.65-37.73-25.16-44.31c-1.52-6.58-2.12-29.02-16.67-36.28-14.55-7.27-17.89-20.23-52.14-5.06-34.26,15.17-31.22,16.12-31.22,16.12l-32.13-10.11s-23.95-8.22-38.5,2.21c-14.55,10.43-25.47,31.92-32.44,41.72s-29.1,17.7-36.68,17.7-9.7,18.96,1.52,26.86c11.22,7.9,15.76,13.27,15.76,13.27Z"/><path class="cls-10" d="m369.02,461.32l9.44,47.61,9.9,91.27,11.67,67.09,5.68,141.95v67.32l17.03,182.5,7.3,70.57,135.46-3.24-4.87-178.45-4.58-103.42,72.72,2.27,36.36-138.62,7.95-51.13s-2.59-66.11-7.33-75.58-19.62-54.8-19.62-54.8c0,0-9.47-37.21-21.65-46s-79.15-29.09-79.15-29.09l-99.78-40.05-65.51,22.98-11.03,19.8"/><path class="cls-10" d="m118.59,1147h21.21l25.61,8.54s27.54,5.4,36.35,3.12,42.69-9.43,48.19-13.03,17.35-5.23,17.35-5.23v-57.56s-1.38-74.91-1.38-91.16,1.1,13.22-1.65-102.45,20.61-226.6,20.61-226.6l13.36-155.02s-32.78-29.9-42.56-37.45-20.76-15.85-20.76-15.85c0,0-5.11-1.36-22.89,5.59s-57.45,26.73-57.45,26.73c0,0-18.68,7.25-36,8.17s-29.95,2.72-35.87,11.48-34.78,22.16-38.9,38.39-4.12,54.85-12.88,66.19-7.52,55.17-7.52,55.17l66.24,43.2,50.96,19.13,1.71,49,12.19,117.83,84.44-62.3-136.15,169.25-3.76,35.07,8.76,51.64-1.25,21.13,4.8,35.3"/><polyline class="cls-3" points="228.76 446.71 237.95 430.14 252.73 417.36 260.52 408.77 290.07 443.32 290.07 456.1 283.88 491.24 279.09 499.83 266.31 486.05 249.73 463.89 228.76 450.31"/><path class="cls-3" d="m369.02,449.08s4.52-6.64,8.44-1.81,15.08,21.11,23.22,28.65,22.92,19,33.18,18.7,8.14-1.51,7.54-5.73-10.56-24.13-10.56-28.65,0-20.21,4.22-26.54,8.52-13.34,10.49-22.18-17.12-28.49-17.12-28.49c0,0-18.39-24.95-20.2-18.66s-5.13,33.14-11.47,40.07-22.92,24.73-25.33,34.68"/><polyline class="cls-3" points="538.53 680.44 548.29 672.6 570.89 663.06 621.8 666.22 647.18 663.06 699.25 669.12 695.31 710 702.8 733.46 700.29 750.81 688.13 757.42 654.75 751.23 623.87 742.56 594.92 744.9 552.86 751.45 546.29 739.17 542.63 702.56"/><polyline class="cls-3" points="6.18 710.59 15.42 666.01 61.25 672.15 71.92 676.61 101.66 674.57 164.52 686.84 179.49 690.93 153.99 715.02 146.67 757.42 116.62 757.42 75.72 752.65 45.92 751.9 18.65 748.14 6.18 732.83"/><path class="cls-2" d="m29.56,748.03l2.41,38.91,1,41.12,1.6,35.3s8.63,12.19,10.9,35.82,13.4,80.99,15.54,96.46,10.68,26.54,16.83,29.13,18.74,10.03,35.1-6.15,56.83-57.3,56.83-57.3c0,0,48.28-63.69,53.21-89.22s-37.41-117.09-37.41-117.09c0,0-71.62-3.06-88.84-3.44"/><polyline class="cls-8" points="150.46 856.04 200.68 853.15 374.24 841.26 427.41 770.57 400.03 667.29 381.09 658.81 210.22 658.81 148.55 713.51 144.38 786.26"/><path class="cls-9" d="m243.19,874.09s-66.84-12.04-55.04-66.14,32.71-63.4,70.4-57.56,63.44,32.7,58.11,74.87-51.53,52.6-64.6,50.83-8.86-2-8.86-2Z"/><path class="cls-7" d="m254.32,639.42s-30.11-24.47-28.4-65.43,7.77-75.65,53.17-74.16,70.18,24.6,72.13,68.59-16.98,66.82-34.25,75.46-38.47,6.69-51.79,0-10.86-4.45-10.86-4.45Z"/><path class="cls-2" d="m567.5,742.86s54.92-8.36,76.73-2.08,35.22,5.87,35.22,5.87c0,0-2.93,5.67,3.77,35.33s11.22,79.84,15.76,110.38,9.23,44.52,0,49.15-78.32-15.27-78.32-15.27l-134.28-59.65s-37.19-7.66-55.4-11.16-57.02-19.13-57.02-19.13l-6.62-3.49s-17.84-18.03,4.23-13.43-15.44-8.46-15.44-8.46c0,0-29.34-27.51,0-21.51s-2.78-11.7-2.78-11.7c0,0-13.71-22.01,8.88-20.41s-3.18-14.44-3.18-14.44l-31.05-23.38s-11.57-32.71,14.84-14.71,51.98,36.02,51.98,36.02c0,0,35.65,20.04,28.15,2.07s-25.21-55.79-25.21-55.79c0,0,4.47-40.82,18.89-12.31s22.83,43.52,31.23,48.92,32.05,40.6,45.89,62.77,65.76,16.98,65.76,16.98l19.7,20.27s-4.29-27.29-5.92-45.71"/><path class="cls-1" d="m155.76,1929.29l130.05,7.47,36.47-1.2s-9.57,66.97-17.64,69.96-179.82,57.54-179.82,57.54l-27.67-4.92s-58.6-13.75-55.91-40.66,37.77-50.45,37.77-50.45c0,0,62.98-25.19,76.73-37.75Z"/><path class="cls-1" d="m383.74,1979.13v39.95l6.99,12.58,133.05,43.02,60.76,7.98s18.09,2.23,33.01-17.06,13.59-22.57,6.46-35.19-72.94-46.65-72.94-46.65l-167.33-4.64Z"/><path class="cls-3" d="m126.84,2035.29l-12.49-12.95s20.45-29.31,51.57-29.99,47.03-1.82,61.34-13.86,24.76-16.36,24.76-16.36l10.22,15.68s-24.37,28.85-50.58,28.62-53.7,4.54-72.55,19.08-12.27,9.77-12.27,9.77Z"/><path class="cls-3" d="m545.17,2058.42l12.71-11.98s-20.8-27.11-52.47-27.74c-31.67-.63-47.85-1.68-62.41-12.82-14.56-11.14-25.2-15.13-25.2-15.13l-10.4,14.5s24.79,26.69,51.46,26.48,54.64,4.2,73.82,17.65,12.48,9.04,12.48,9.04Z"/></svg>