<?xml version="1.0" encoding="utf-8"?>
<!-- Generator: Adobe Illustrator 27.7.0, SVG Export Plug-In . SVG Version: 6.00 Build 0)  -->
<svg version="1.1" id="Lager_1" xmlns="http://www.w3.org/2000/svg" xmlns:xlink="http://www.w3.org/1999/xlink" x="0px" y="0px"
	 viewBox="0 0 811.1 2160" style="enable-background:new 0 0 811.1 2160;" xml:space="preserve">
<style type="text/css">
	.st0{display:none;fill:#CE00F2;}
	.st1{fill:#30AFD1;}
	.st2{fill:#FFFF00;}
	.st3{fill:url(#SVGID_1_);}
	.st4{fill:#C1C1C1;}
	.st5{fill:#77776E;}
	.st6{fill:#FFFFFF;}
	.st7{fill:#FAFFE3;}
	.st8{fill:#545454;}
	.st9{fill:#36FFF5;}
	.st10{fill:#43918B;}
	.st11{fill:#676767;}
	.st12{display:none;}
	.st13{display:inline;fill:#AFAFAF;}
</style>
<rect x="-56.8" y="55.4" class="st0" width="908.3" height="2091.5"/>
<path class="st1" d="M189.6,1108.6l3.5,102.3l6.9,61.3c0,0,0.4,32.3,3.9,53.5c3.5,21.2,12.9,102.1,12.9,102.1s8.2,42,15.5,78
	c7.4,36,5.7,108.3,5.7,108.3s26.4,94.9,19.2,154.1c-7.2,59.1-45,193.8-45,193.8s60.1,12.9,110.7,13c50.6,0.2,85.8,1.2,86.6-16.8
	c0.9-18-12.2-104-12.2-104s6.4-132.1-0.3-203.1s-1.6-210.2,2.1-259.8s10.4,8.2,10.4,8.2l9.7,75.1l1.9,69.2c0,0,31.1,98.7,25.1,139.7
	s-15.2,147.1-12.2,168.4c3,21.2,18.7,145.4,18.7,145.4l1.1,15.4c0,0,102.2,17.6,140.8,9.2s53.6-9.5,53.6-9.5s-24.2-95.9-31.6-135.2
	c-7.4-39.3-2.5-94.7-2.5-94.7l-17.4-176.8c0,0-22.2-62.5-19.4-81.9s20.4-159.2,20.4-159.2l6.9-125.8l1.9-76.5l-15.3-74.8"/>
<linearGradient id="SVGID_1_" gradientUnits="userSpaceOnUse" x1="252.3709" y1="316.1329" x2="559.6887" y2="316.1329">
	<stop  offset="0" style="stop-color:#FFFFFF"/>
	<stop  offset="1" style="stop-color:#F2FFAA"/>
</linearGradient>
<path class="st3" d="M334.8,446.5l-17.7,11.8l-18.7,26.5l-5.9,40.3l267.2,11.8v-68.8l-41.3-21.6l2-8.8l-39.3-38.3l-11.8-133.6
	l7.9,11.8l14.7-2l14.7-18.7l3.9-40.3l-8.8-26.5h-18.7l-18.1-17.9l-15.8-18.1l-8.5-27l-17-14.7l-12.7-9.3l-18.9-7.7h-28.2H329
	l-23.6,13.5l-26.3,18.9l-23.6,34l-2.3,16.6l4.2,28.6l5,34.8c0,0,0.4,12.7-2.7,20.5c-3.1,7.7-10,32.8-6.6,39.8
	c3.5,7,19.7,50.2,32.4,66.4c12.7,16.2,32.1,46.7,51,51s7.2,12.1,7.2,12.1L334.8,446.5z"/>
<g id="Lager_2">
</g>
<path class="st4" d="M366.3,509.1c0,0,12.8,7.3,25,7.3s47-3.7,53.1-7.3s35.9,53.7,35.9,53.7l58.1,549.2c0,0-57.3,24.4-74.5,27
	c-17.2,2.6-118.7,12-135.9,0c-17.2-12,4.4-630.1,4.4-630.1"/>
<path class="st2" d="M246.7,177.4c0,0,7.9,6.6,15.5,3.8s20.6-15.8,21.8-21.2s2.7-28.4,14.2-34.1c11.5-5.7,21.8-14.5,31.5-12.3
	c9.7,2.2,41.8,21.8,51.2,8.8s34-11.4,34-11.4s22.4,17.4,25.2,24.7s7.3,20.9,13.3,28.4c6.1,7.6,11.5,13.6,11.5,13.6
	s40.6,0.9,29.4-22.4c-11.2-23.4-23.6-37.7-25.2-44.3s-2.1-29-16.7-36.3c-14.6-7.3-17.9-20.2-52.1-5.1s-31.2,16.1-31.2,16.1
	l-32.1-10.1c0,0-23.9-8.2-38.5,2.2s-25.5,31.9-32.4,41.7c-7,9.8-29.1,17.7-36.7,17.7c-7.6,0-9.7,19,1.5,26.9
	C242.2,172,246.7,177.4,246.7,177.4z"/>
<path class="st5" d="M441.9,496.3l9.4,47.6l9.9,91.3l11.7,67.1l5.7,141.9v67.3l17,182.5l7.3,70.6l135.5-3.2l-4.9-178.4l-4.6-103.4
	l72.7,2.3L738,743.2l8-51.1c0,0-2.6-66.1-7.3-75.6c-4.7-9.5-19.6-54.8-19.6-54.8s-9.5-37.2-21.6-46s-79.2-29.1-79.2-29.1l-99.8-40.1
	l-65.5,23l-11,19.8"/>
<path class="st5" d="M191.5,1182h21.2l25.6,8.5c0,0,27.5,5.4,36.4,3.1c8.8-2.3,42.7-9.4,48.2-13c5.5-3.6,17.4-5.2,17.4-5.2v-57.6
	c0,0-1.4-74.9-1.4-91.2c0-16.2,1.1,13.2-1.7-102.4s20.6-226.6,20.6-226.6l13.4-155c0,0-32.8-29.9-42.6-37.5s-20.8-15.9-20.8-15.9
	s-5.1-1.4-22.9,5.6c-17.8,7-57.4,26.7-57.4,26.7s-18.7,7.3-36,8.2c-17.3,0.9-29.9,2.7-35.9,11.5c-5.9,8.8-34.8,22.2-38.9,38.4
	s-4.1,54.8-12.9,66.2c-8.8,11.3-7.5,55.2-7.5,55.2l66.2,43.2l51,19.1l1.7,49l12.2,117.8l84.4-62.3l-136.2,169.3l-3.8,35.1l8.8,51.6
	l-1.3,21.1l4.8,35.3"/>
<polyline class="st6" points="301.6,481.7 310.8,465.1 325.6,452.4 333.4,443.8 363,478.3 363,491.1 356.8,526.2 352,534.8 
	339.2,521.1 322.6,498.9 301.6,485.3 "/>
<path class="st6" d="M441.9,484.1c0,0,4.5-6.6,8.4-1.8c3.9,4.8,15.1,21.1,23.2,28.7c8.1,7.5,22.9,19,33.2,18.7
	c10.3-0.3,8.1-1.5,7.5-5.7c-0.6-4.2-10.6-24.1-10.6-28.7s0-20.2,4.2-26.5s8.5-13.3,10.5-22.2c2-8.8-17.1-28.5-17.1-28.5
	s-18.4-25-20.2-18.7c-1.8,6.3-5.1,33.1-11.5,40.1c-6.3,6.9-22.9,24.7-25.3,34.7"/>
<polyline class="st6" points="611.4,715.4 621.2,707.6 643.8,698.1 694.7,701.2 720.1,698.1 772.1,704.1 768.2,745 775.7,768.5 
	773.2,785.8 761,792.4 727.6,786.2 696.8,777.6 667.8,779.9 625.7,786.4 619.2,774.2 615.5,737.6 "/>
<polyline class="st6" points="79.1,745.6 88.3,701 134.1,707.1 144.8,711.6 174.5,709.6 237.4,721.8 252.4,725.9 226.9,750 
	219.5,792.4 189.5,792.4 148.6,787.7 118.8,786.9 91.5,783.1 79.1,767.8 "/>
<path class="st7" d="M102.4,783l2.4,38.9l1,41.1l1.6,35.3c0,0,8.6,12.2,10.9,35.8s13.4,81,15.5,96.5c2.1,15.5,10.7,26.5,16.8,29.1
	s18.7,10,35.1-6.2s56.8-57.3,56.8-57.3s48.3-63.7,53.2-89.2c4.9-25.5-37.4-117.1-37.4-117.1s-71.6-3.1-88.8-3.4"/>
<polyline class="st8" points="223.3,891 273.6,888.2 447.1,876.3 500.3,805.6 472.9,702.3 454,693.8 283.1,693.8 221.4,748.5 
	217.3,821.3 "/>
<path class="st9" d="M316.1,909.1c0,0-66.8-12-55-66.1c11.8-54.1,32.7-63.4,70.4-57.6c37.7,5.8,63.4,32.7,58.1,74.9
	c-5.3,42.2-51.5,52.6-64.6,50.8S316.1,909.1,316.1,909.1z"/>
<path class="st10" d="M327.2,674.4c0,0-30.1-24.5-28.4-65.4c1.7-41,7.8-75.6,53.2-74.2c45.4,1.5,70.2,24.6,72.1,68.6
	c1.9,44-17,66.8-34.2,75.5s-38.5,6.7-51.8,0S327.2,674.4,327.2,674.4z"/>
<path class="st7" d="M640.4,777.9c0,0,54.9-8.4,76.7-2.1c21.8,6.3,35.2,5.9,35.2,5.9s-2.9,5.7,3.8,35.3
	c6.7,29.7,11.2,79.8,15.8,110.4s9.2,44.5,0,49.2s-78.3-15.3-78.3-15.3l-134.3-59.7c0,0-37.2-7.7-55.4-11.2
	c-18.2-3.5-57-19.1-57-19.1l-6.6-3.5c0,0-17.8-18,4.2-13.4c22.1,4.6-15.4-8.5-15.4-8.5s-29.3-27.5,0-21.5c29.3,6-2.8-11.7-2.8-11.7
	s-13.7-22,8.9-20.4s-3.2-14.4-3.2-14.4l-31-23.4c0,0-11.6-32.7,14.8-14.7c26.4,18,52,36,52,36s35.7,20,28.1,2.1
	s-25.2-55.8-25.2-55.8s4.5-40.8,18.9-12.3s22.8,43.5,31.2,48.9s32,40.6,45.9,62.8s65.8,17,65.8,17l19.7,20.3c0,0-4.3-27.3-5.9-45.7"
	/>
<path class="st11" d="M228.6,1964.3l130,7.5l36.5-1.2c0,0-9.6,67-17.6,70c-8.1,3-179.8,57.5-179.8,57.5l-27.7-4.9
	c0,0-58.6-13.8-55.9-40.7c2.7-26.9,37.8-50.4,37.8-50.4S214.9,1976.8,228.6,1964.3z"/>
<path class="st11" d="M456.6,2014.1v40l7,12.6l133.1,43l60.8,8c0,0,18.1,2.2,33-17.1s13.6-22.6,6.5-35.2
	c-7.1-12.6-72.9-46.7-72.9-46.7L456.6,2014.1z"/>
<path class="st6" d="M199.7,2070.3l-12.5-12.9c0,0,20.4-29.3,51.6-30s47-1.8,61.3-13.9c14.3-12,24.8-16.4,24.8-16.4l10.2,15.7
	c0,0-24.4,28.9-50.6,28.6s-53.7,4.5-72.6,19.1C193.1,2075.1,199.7,2070.3,199.7,2070.3z"/>
<path class="st6" d="M618,2093.4l12.7-12c0,0-20.8-27.1-52.5-27.7c-31.7-0.6-47.8-1.7-62.4-12.8s-25.2-15.1-25.2-15.1l-10.4,14.5
	c0,0,24.8,26.7,51.5,26.5c26.7-0.2,54.6,4.2,73.8,17.7C624.8,2097.8,618,2093.4,618,2093.4z"/>
<g class="st12">
	<path class="st13" d="M72.9,750c3.1-5.9,2.1-12.6,3.9-18.9c2.4-8.7,2.3-18.1,6.8-26.4c0.4-0.8,0.4-1.9,0.4-2.9
		c0-2.3,0.5-4.3,3.3-3.6c2.1,0.5,4.7,1.1,3.7,4.4c-1.2,4-2.2,8.2-3.4,12.2c-0.8,2.4-1,4.5,1,6.3c2.2,2,1.8,4.8,1.5,7.2
		c-0.5,4.4,1.1,8.7-0.1,13.1c-0.2,0.9-0.3,2.1,0.7,2.7c1.9,1.2,4.4,2.1,2.2,5.1c-2.4,3.3-2.8,8.9-8.7,8.4c-2.4-0.2-2.6,1.3-2.2,2.6
		c0.8,2.7,1,5.6,3.3,7.9c4.6,4.7,8.6,10.4,15.7,10.7c6.1,0.2,12.1,1.2,18.1,2.2c3.9,0.6,7.8,1.3,11.7,1.9c1.8,0.2,3.7,0.4,5.5,0.1
		c16.2-3.2,32.3-0.6,48.3,1.5c4.5,0.6,9.6,0.8,14,3.3c1.4,0.8,3.1,0.9,2,2.8c-0.7,1.3-0.2,3.6-3.2,3.5c-4.8-0.1-9.4-1.4-14-2.4
		c-2.3-0.5-4.5-1-6.7-0.1c-1.6,0.7-3.6,0.9-4.9,0.2c-7-3.7-14.3-0.6-21.3-1.4c-6.5-0.7-12.7,2.8-18.3,1.2c-8.6-2.5-18,0.7-26.9-5.1
		c1.6,9.9,2.6,18.9,3.1,27.9c0.1,2.7-0.8,5-0.6,7.6c1.8,19.4,0.4,38.9,1.2,58.3c0.3,6.6,2.3,13.3,4.6,19.8c2.4,7,2.9,14.7,5.4,21.7
		c3.6,10.4,3,21,4.2,31.6c1.2,10.1,1.7,20.4,5,30.2c1.5,4.5,0.1,9.1,1.4,13.7c3.2,10.7,5.4,21.6,8.7,32.3c1.8,6,1.4,12.3,3.6,18.2
		c0.8,2,0.9,4.8,5,3.4c2.8-0.9,5,2.8,6,4.7c1.9,3.8,4.1,4,7.6,3.1c2.8-0.7,5.6,0.1,8.7-0.7c4.5-1.2,8-3.6,11-6.5
		c6.4-6.2,12.9-12.3,20-17.7c4.9-3.8,6.4-10.2,11.4-14c2-1.5,3.2-3.9,6-4.6c0.9-0.2,2-0.7,2.5-2.1c1.2-3.4,3.9-6.1,6.7-7.8
		c6.7-3.8,10.7-10.2,15.9-15.3c4.1-3.9,9.6-6.6,12-12c3.7-8.1,8.8-15.2,13.8-22.4c5-7.2,9.3-14.9,12.5-23.3
		c1.9-5.1,4.9-10.2,9.8-13.8c2.2,3.2,1.7,5.7-0.4,9c-5,8.1-9,16.7-13.8,24.9c-5.9,10.2-11.6,20.5-18.1,30.2
		c-5.1,7.6-12.8,13.5-19.7,19.8c-4,3.7-8.1,7.2-11.4,11.6c-1.6,2.1-3.4,4.4-5.6,5.7c-7.1,4.1-11.8,10.1-15.5,17.3
		c-1,1.9-4.1,2.6-5.8,4.3c-8.3,8.1-16.3,16.7-26.2,22.9c-2,1.3-1.9,2.1-1,3.9c3.5,6.7,3.6,14.1,4.3,21.5c0.8,8.6,1.8,17.3,3.4,25.8
		c0.6,3-0.4,5.5-0.7,8.1c-1.2,11.1,1.3,21.9,2.7,32.8c1,7.6-0.2,15.3,0.9,23.6c5.1-4,11.1-2,16.6-2.9c4.2-0.7,9.1,0.1,13.5,1.5
		c7.1,2.2,14.1,5.5,21.4,6.3c10.1,1.1,19.7,5.3,29.9,4.8c7.5-0.3,14.8-2.6,22.1-4c11.1-2.1,22.2-4.4,32.7-8.8c1.4-0.6,3.3-0.2,5-0.2
		c3.1-0.1,6.3,0.6,9-2.5c0.3,2.9,1.6,5.1-2.2,5.9c-9.6,2-18.3,6.7-27.6,9.5c-11.4,3.3-23.1,5.3-34.8,7.4c-10,1.8-19.3-0.9-28.9-2
		c-12.3-1.5-23.2-7.3-35.1-9.5c-2.8-0.5-6.1-0.7-9.2,0.2c-1.5,0.5-1.8,1.1-1.6,2.4c1,9.3,0.3,18.6,1,27.8
		c1.2,15.3,1.5,30.8,5.9,45.7c0.2,0.6,0.5,1.2,0.9,1.7c0.9,1.5,1.9,3,3.1,4.9c5.6-10.3,11-20.1,16.4-29.9c0.6,0.3,1.1,0.5,1.7,0.8
		c-1.4,5.6-1.1,11.6-5.5,16.3c-0.6,0.6-1.8,0.6-1.3,2.1c2.7,7.8-1.7,13.6-6.8,17.7c-4.6,3.7-4.3,7.7-3.2,11.7
		c2.5,9.7,1.9,19,0.1,28.7c-1.5,8.2-0.8,16.8,1.1,25.1c1.9,8.4,3.1,17,6.4,25c0.4,1,0.1,2.3,0.1,3.5c-0.2,15.7,3.4,31.2,3.7,46.8
		c0.1,8.5,2.4,16.9,0.7,25.6c-0.7,3.5,1.4,8,0.4,11.7c-1.6,6.3-0.1,12,1.2,17.9c1.4,6.3,4,12.2,6.3,18.2c5.7,14.6,8.8,29.7,9,45.6
		c0.1,6.1-0.4,12.5,1.5,18.6c0.8,2.6,0.2,7.2-1.8,7.4c-3.4,0.4-2.5-4.1-2.8-6.2c-0.8-5.2-0.7-10.5-1-15.8
		c-0.5-7.9-1.9-15.8-1.3-23.8c0.2-3-0.8-5.8-2-8.5c-0.8-1.7-1.2-3.4-0.9-5.3c0.2-1,0.8-2.2-0.4-2.5c-3.8-0.9-3.5-3.9-4-6.8
		c-0.6-3.2-0.8-6.7-3.8-9.1c-0.5-0.4-0.9-1.1-0.9-1.7c-0.5-9.6-5.9-18-4.6-28.5c1.1-8.7,0.6-18.2-0.9-27.1
		c-0.9-5.2-0.4-10.5-1.2-15.7c-1.5-9.9-2.3-19.9-2.8-29.9c-0.6-11.3-3.4-21.9-5.5-32.8c-2.3-12.1-5.1-24.6-1.6-37.6
		c1.8-6.5,2.2-13.9-0.2-21.2c-2.8-8.6-4-17.7-6-26.6c-3.8-16.4-8.3-32.8-7.1-49.9c0.6-8.5-2.4-16.8-1.1-25.3
		c0.4-2.7-1.9-2.4-3.2-2.8c-5.3-1.9-7.3-5-6.9-10.6c0.6-8,0.2-15.9-1.3-23.8c-2-10.5-4-20.9-1.8-31.8c1.1-5.1-0.4-10.4-1.6-15.6
		c-1-4.4-2.4-8.8-2.2-13.3c0.2-5.1-1-9.7-3-14.3c-0.2-0.4-0.7-0.9-0.6-1.3c1.3-8.4-4.7-6-8.9-5.9c-4.5,0.2-8.6,0.1-10.1-5.2
		c-0.5-1.8-2.2-2.8-3.5-3.2c-6.9-2.1-7.2-8.3-8.8-13.5c-4.2-13.5-7.7-27.1-12-40.5c-2-6.3-0.1-12.8-2.1-19c-3.1-9.5-2-19.7-4.6-29.4
		c-1.4-5-1.6-11,0.3-16.5c0.3-0.8,0.4-1.6-0.1-2.4c-4.2-6.1-2.5-14-5.8-20.3c-2.5-4.6-3.7-9.4-5.1-14.3c-3-10.4-5.4-20.8-4.7-31.7
		c0.4-6.4,0.8-13,0.6-19.3c-0.3-8.2,0.4-16.5-1.4-24.6c-0.5-2.1-0.6-4.4-0.1-6.5c2.2-9.1-0.1-18-0.9-26.9
		c-0.7-8.4-2.5-9.9-11.5-10.7c-1.4-0.1-2.8-0.1-3.5-1.4c-4.2-6.8-11-12.3-11.4-21.1c0-0.2-0.5-0.4-0.7-0.5
		C72.9,757.3,72.9,753.7,72.9,750z"/>
	<path class="st13" d="M641.9,2125c-4.1-3.5-9.4-3.2-14.1-3.8c-6.5-0.8-12.9-1.1-19.1-3.7c-3.3-1.4-7.3-1.5-10.9-2.4
		c-10.5-2.3-19.9-8.3-30.5-9.2c-8.6-0.8-15.2-6.6-23.4-7.3c-6.3-0.6-12-2.9-18.1-4c-4.7-0.9-9.8-3.2-14.5-4.9
		c-6.2-2.2-12.4-4.6-18.6-6.7c-8.2-2.9-16.2-6.6-24.2-10.1c-3.4-1.5-6.4-4-10.5-2.8c-1,0.3-2.1-0.1-2-1.5c0.2-2.1-1.3-4-1.2-5.6
		c0.3-5.6-2.9-10.7-2.6-15.9c0.7-11.5-2.4-23.3,1.8-34.6c0.6-1.5,1.4-3,2.5-4.1c0.8-0.8,2.2-1.2,3.5-0.2c1.1,0.8,1.8,1.3,1.5,3.1
		c-3.5,16.1-0.5,32,2.4,47.8c0.4,2,1.3,2.7,2.9,3.5c9.5,4.8,19.3,8.7,29.1,12.8c7.8,3.3,15.6,6.4,23.6,8.8c10.6,3.2,21.3,5.7,31.8,9
		c8,2.5,16.4,3.7,24.3,6.8c13.1,5.2,26.7,9.3,40.5,11.8c7.4,1.3,15.2,3.3,22.5,2.9c12.4-0.7,25.1,0.5,37.3-3.5
		c2.3-0.7,4.3-1.3,6.1-3.3c2.4-2.7,5.3-5.1,8.5-7.1c4.8-3,5.6-8.6,6.4-13.8c0.6-4.2-0.1-8.4,1-12.7c0.7-2.6-2.4-5.9-4.5-8
		c-7.3-7-14.3-14.2-23.6-18.9c-5-2.6-9.8-5.9-14.7-8.8c-10.4-6.2-21.7-10.4-32.8-15c-5.9-2.5-13-0.1-19.1,1c-5.3,1-10.3,0-15.4,0.4
		c-7.9,0.6-15.9-1.1-23.7-0.7c-10.7,0.6-20.7-2-31-3.8c-4.8-0.8-10.1-0.7-14.8-1.8c-10.3-2.3-21-0.1-31.1-3.4c-1.8-0.6-4-0.2-6-0.3
		c-1.3-0.1-2.3-0.8-2.2-2.2c0.1-1,1-1.7,2.1-1.7c1.2,0,2.3-0.1,3.5,0c13.8,0.3,27.6-0.9,41.3,1c5.5,0.8,11,1.7,16.3,3.3
		c3.6,1.1,7.3,1.3,10.7,1.4c9.1,0.2,18.2,1.4,27.3,1.3c17.8-0.2,35.6-0.8,53.1-4.8c4-0.9,4.3-3.1,3.3-5.6c-4.5-10.2-4.6-21-4.5-31.8
		c0-2.3-2.5-5.6,1.5-7.3c0.1-0.1,0.1-0.9-0.1-1.2c-3.9-5.9-3.4-12.9-4.3-19.4c-1.2-8.9-2.1-18-5.6-26.2c-2.1-4.8-1.4-9.4-2-14
		c-0.8-6.3-2.3-12.5-3.7-18.7c-1.7-7.5,0.1-15.3-2.8-22.6c-1.5-3.8-1.8-8-4.4-11.3c-1-1.2-0.7-2.6-0.6-3.8c0.2-2.2-0.3-4.8-1.6-6.1
		c-5.8-6-8.4-13.9-10.9-21.1c-2.8-8.3-9.2-13.1-13.7-19.7c-1.1-1.6-1.4-3-0.3-4.5c1.4-2,3.2-0.4,3.8,0.3
		c5.7,6.6,12.3,12.3,14.8,21.4c2,7.3,6.5,13.8,9.7,20.8c4.5,9.8,8.7,19.9,9.8,30.7c0.7,7.2,2,14.3,3.6,21.3c0.5,2.2,0.6,4.2,0.7,6.3
		c0.3,11,3.9,21.5,5.3,32.2c1.3,10.4,4.9,20.2,4.9,30.9c0,14.7,3.3,29,9,42.6c0.8,1.9,2.2,3.6,3.2,5.5c0.6,1.1,4,1,1.6,3.4
		c-1.4,1.4-1.6,4.9-5.1,3.1c-0.4-0.2-1.2-0.5-1.3-0.4c-1.6,1.5-3.9,0.1-5.8,1.7c2.5,3.5,6.5,4.4,9.9,5.9c9.8,4.4,19,9.7,27.8,16
		c7,5,13.9,10.1,20.1,16.2c3.4,3.3,5.9,7,8.3,11c2.3,3.9,3.8,7.5,1.5,12.3c-1.8,3.8-0.2,8.5-0.9,12.8c-1.1,6.9-5.1,11.5-10,15.8
		c-4.8,4.2-9.5,8.2-16.1,9.3c-6.9,1.2-13.7,2.8-20.6,3.6c-4.6,0.5-9.3,0.6-13.8,2.1C643.2,2125,642.5,2125,641.9,2125z"/>
	<path class="st13" d="M750.3,786.2c3.8,3.1,4.7,6.8,5.8,10.9c2.1,7.5,1.8,15.4,4.9,22.8c2.4,5.7,2.2,12.5,4,18.6
		c2.3,7.9,2.8,16,4.5,24c1.9,8.6,2.3,17.5,3.4,26.3c0.8,6.5-1.2,13.2-0.5,19.3c1.3,12.1,1.8,24.4,4.4,36.5c1.7,7.9,3.3,16,4.1,24.1
		c0.1,1,0,1.8-1.2,2.4c-1.3,0.7-2.7,1.7-3.3,3c-2.7,6.2-8.2,6.3-13.8,7c-7.1,1-12.8-1.5-18.8-4.5c-3-1.5-6.6-1.2-9.9-2.3
		c-5.8-1.9-12.1-0.8-18.1-3.9c-2.4-1.2-6.9,0.5-10.6,0.5c-2.3,0-4.6,0-4.4-3.2c0.1-2.1-1.6-1.7-2.7-2.1c-8.2-3.2-16.5-7.2-24.6-9.7
		c-13-3.8-23.8-12.5-37.8-14.6c1.7,9.3,0.7,18.8,2.4,28.2c1,5.3,2.5,10.2,0.5,16.2c-1.2,3.7-0.5,9.2-0.7,13.9
		c-0.2,5.8-0.8,11.4-1.9,17.1c-0.2,1-0.7,2.8,0.8,3c5.7,0.7,2.7,2.9,1,4.8c-0.5,0.6-0.6,1-0.1,1.6c4.8,5.9,3.5,13.2,4,19.8
		c0.8,10.3-0.6,20.8,2.6,31c0.6,2-0.1,4.4-0.4,6.6c-1,8.3,0.5,16.6-0.7,24.9c-0.5,3.6,0.7,7.6,0.7,11.5c0,9.4,0,18.7,0,28.1
		c0,2.8,0.2,5.5-2,7.9c-1.1,1.2-1.6,2.7-0.1,4.4c2.2,2.6,1,6.1-2.4,6.4c-5.9,0.4-12.1-0.5-17.8,0.7c-6.7,1.4-13.8-3.2-20,2
		c-0.9,0.8-2.9,0.5-4.4,0.4c-9.3-0.5-18.3,1.8-27.4,2.6c-8.3,0.7-17,1.7-25.3-0.4c-2.7-0.6-4.7,1-7.3,0.9
		c-5.8-0.3-11.7-0.6-17.5,0.1c-5.5,0.7-9.7-2.4-14.6-3.3c-2-0.4-1.8-4.2,0.3-5.6c1.9-1.3,4.2-1.9,6.1-1.1c6.7,2.8,13.5,1.5,20.3,1.2
		c5.1-0.2,10.5-0.4,15.5,0.1c13.7,1.6,26.8-0.5,40.2-2.7c5-0.8,10.2,0,15.3,0.1c1.3,0,3,0.5,3.9-0.1c8-5,16.8-2.7,25.3-2.6
		c5.4,0,5.3-2.6,4.7-6c-1-6.5-1.9-13-1.9-19.6c0-11.4,0.2-22.7-0.1-34.1c-0.2-6.3,0.4-12.6,1.3-18.8c0.5-3.4-0.6-6-1.3-8.8
		c-2.1-8.1,0.2-16.3-0.9-24.4c-0.5-3.7,0.3-7.6-1.3-11.3c-1-2.2-2.3-2.7-4-1.2c-4.4,4.1-9.4,7.4-13.6,11.9c-5.5,6-11.8,11.4-16.7,18
		c-0.9,1.2-1.8,2.4-2.4,3.7c-0.6,1.3-1,2.2-2.8,1.5c-1.9-0.8-1.5-2.3-1.1-3.3c0.5-1.5,1.5-2.9,2.6-4.1c4.7-4.8,8.8-10.3,13.3-15.2
		c6.4-7.1,13.3-13.7,20-20.5c3.6-3.7,6.3-7.3,6-13.2c-0.6-9.6-0.2-19.3-0.1-29c0.1-14.3-1.7-28.5-1-42.8c0.1-2.5-0.8-4.2-3.2-5
		c-10.9-3.5-20.7-9.5-31.1-14.1c-6.5-2.9-13.9-4.9-19.3-8.8c-10.6-7.5-23-9.5-34.4-14.5c-7.2-3.1-15-4.5-23.4-3.1
		c-5.4,0.8-11.6-1.3-17.4-2.1c-8.2-1.1-15.7-5.2-23.6-6.8c-7.1-1.4-13.7-3.9-20.6-5.7c-1.6-0.4-3.2-0.9-4.4-2.1
		c-2.6-2.4-5.1-3.6-8-0.3c-0.7,0.8-2.1,1.2-3.1,1.2c-8.9-0.3-17.6,3.1-26.6,2.1c-1.7-0.2-3.5-0.3-5.3,0.6c-1.1,0.6-3.4,0.6-4.1-0.1
		c-5.5-5.4-11.5-1.3-17.3-1c-1.2,0.1-2.6,0.5-3.9,0.4c-2.7-0.2-4.1,0.9-6,3c-4.2,4.6-6.7,11.2-13.5,13.2c-0.2,0.1-0.5,0.4-0.6,0.7
		c-4.1,9.2-13.4,9.4-21.1,12c-4.4,1.5-7.1,3-7.1,8.6c0,19,3.2,37.9,2.5,57c-0.2,6.6-0.4,13.5,0.1,20.1c0.9,11.9-0.4,23.9,1.5,35.8
		c0.8,4.6-0.8,9.2-0.8,13.8c-0.2,19.2-1,38.4,0.3,57.5c0.7,10,1.5,20,1.6,30.1c0,1.3,0.2,1.9,1.8,2.3c8.9,2.2,18,2.9,27,4.3
		c11.3,1.7,22.1-0.2,33.1-0.5c18.1-0.4,36.2-3.2,54.3-2.9c13,0.2,23.9-6.9,35.6-11c1.6-0.6,1.1-1.9,1-2.9
		c-1.2-15.3-0.1-30.6-3.6-45.8c-1.8-7.6-2.3-15.7-2.2-23.5c0.3-16.9-2.4-33.5-3.8-50.3c-0.9-10.5-2.8-20.9-3.3-31.4
		c-0.1-3.2-2.1-5.7-2.3-9c-0.3-4.1-0.5-8.3-0.6-12.3c-0.2-9-1.8-17.8-2-26.7c-0.1-5-0.9-9.7-2.1-14.4c-0.5-2-0.3-5,2.1-5.2
		c1.8-0.2,2.3,2.5,2.9,4.5c3.5,10.8,3,22.1,4.7,33.1c0.9,5.9,0.3,11.8,1,17.8c0.9,7.6,4.1,14.8,3.6,22.7c-0.3,5,1.4,10.1,1.5,15.1
		c0.3,9.7,2,19.2,3.7,28.7c0.5,2.9,0.9,6.1,0.3,8.9c-2.2,9.8,0.5,19.4,1.5,28.9c1.4,14,3.3,28,3.7,42.1c0.4,12.5,1.8,24.9,2.9,37.4
		c0.1,1.7-0.6,3.2-0.9,4.8c-0.3,1.3-0.9,1.6-2,1.6c-1.1,0-1.7-0.3-2.1-1.5c-0.6-1.9-1-3.8-1-5.8c0.1-2.8-0.2-5.5-0.8-8.3
		c-0.8-3.6-2.1-2.7-3.9-1.1c-6.6,5.9-15,7.2-23.3,8.8c-15.3,3-31.3,0.3-46.5,4.8c-3.1,0.9-6.6,0.2-10,0.2c-8.4-0.2-16.7,1-25.1,1.7
		c-8.8,0.7-17.8-0.6-26.7-1.3c-5-0.4-10.1-0.7-15-2.2c-1.7-0.5-3,0.5-2.3,3c1.6,5.4-1.1,10.5-2,15.7c-0.2,1.2-0.9,2.1-2.7,1.3
		c-1.5-0.7-2.4-0.6-2.1-2.9c1-7.3-0.3-14.6-0.7-21.9c-0.1-2.4,0-4.8,0.2-7c0.8-12.3-2.2-24.3-2.5-36.6c-0.3-14.3-1-28.5-0.7-42.8
		c0.1-5.6,1-11.2,1.9-16.7c0.5-3.1-1.2-5.8-1-8.8c0.5-8.6,0.6-17.3-0.9-25.9c-0.3-1.4-0.3-3,1.1-4.1c0.9-0.7,1.1-1.8,0.9-2.7
		c-1.7-6.1-0.7-12.5-1.5-18.7c-0.6-4.9-1.4-10.2,0.2-15.4c1.3-4.5,0.3-9.3-0.4-13.8c-1.4-8.8-3.4-17.4-1.3-26.3c0.8-3.4,0-7-4.7-6.7
		c-4.6,0.3-8.8-1.7-13.2-1.6c-10.9,0.3-20.8-3.5-30.2-7.7c-5.1-2.2-10.8-5-14.7-10.2c-2-2.7-7.3-2.1-11.1-2.1
		c-8.3,0-16.6,0.5-24.9,0.9c-3.1,0.1-6.2-0.1-9.3,0.8c-4.2,1.3-7.3-1.9-7.9-6.5c-1.1-8.7-2.8-17.3-3.7-26c-0.6-6.1,0-12.4-0.6-18.6
		c-1.7-15.1,0.1-30.2-1.3-45.3c-1.1-11.9-0.8-24.1,1.3-36.1c0.9-4.8,1.4-9.7,2.3-14.5c0.4-2.2,1.1-3,3.2-4.1
		c6.5-3.5,11.2-9.4,16.7-14.2c4.6-4,7.6-9.5,13-12.9c8.7-5.5,16.2-12.5,23.7-19.5c3.9-3.7,8.4-6.9,12.9-9.7c1.5-1,4.1-2.5,6-1.1
		c1.5,1.1,0.7,3.3,0,5.4c13.8-1,27.7,0.3,41.2-4.2c-0.7-1.5-3.5-4.2,1-6c-0.8-1.8-0.6-4.1-3.4-4.6c-8.5-1.7-13.1-8.4-18-14.5
		c-3.7-4.6-5.9-10.1-8.5-15.3c-3.3-6.4-3.1-13.9-5.8-20.4c-2.9-7-0.7-14.1-2.1-20.8c-0.7-3.2-1.9-6.2-1.7-9.5
		c0.3-8.2,2.3-16,4.8-23.8c0.9-2.9,2-5.8,2.6-8.7c1.3-6.5,6-11.2,8.9-16.8c2.4-4.7,5.6-8.2,10.4-9.9c4.2-1.4,6.2-6.5,11.4-6.3
		c7.5,0.3,14.7-3.3,22.8-1c-5.9-7.5,0.6-13.8,1.5-20.6c0.9-6.7,1.6-13.4,5.2-19.7c1.8-3.1,0.2-7.6-1.9-11.3
		c-4.4-7.7-10.1-14.5-15.9-21c-1.8-2-3.2-4.2-5.1-6c-2.8-2.5-6-3.2-8.1,0.7c-2.4,4.3-5.8,7.1-10.1,9.5c-3.6,2-5.9,6.1-8.1,9.7
		c-1.6,2.7-2.8,5.6-4.3,8.3c-2.9,5.4-2.8,5.4,2.8,8c14.9,7.1,27.6,16.4,32.5,33.3c0.6,2.1,1.2,4.1-1.2,5c-2,0.7-3.3-0.1-4.4-2.6
		c-6.7-16-19-26.4-34.9-32.6c-3.9-1.6-8.1-1.3-11.4,2.3c-3.9,4.3-8.1,6.9-14.4,7.4c-6.8,0.6-12.4,5.5-18.5,8.5
		c-13.6,6.7-27.4,13.1-41.5,18.8c-9.6,3.9-20,6.5-30.7,3.5c-1.2-0.3-2.2,0.4-3.3,0.7c-3.8,1.1-7.4,2.8-11.5,2.2
		c-8.2-1.2-12.2,5.2-13.5,10.3c-0.7,2.6-2.4,3.5-3.9,5.2c-5.4,6.2-13.4,8.8-19,14.6c-0.7,0.7-1.6,1.1-2.5,1.6
		c-11.1,6.3-14,16.9-14.8,28.5c-1,12.7-0.5,25.4-1.9,38.1c-0.6,5.4-3.8,9.1-7.4,12.3c-9.3,8.2-12,19-10.2,30.1
		c1.1,6.6,1.2,12.9,1.1,19.3c0,3.6,3.5,4.7,6,4.8c7.1,0.4,14.1,0.6,20.6,4c1.3,0.7,3.2,0.3,4.9-0.3c3.2-1.1,6.1-1.4,7.8,2.6
		c0.7,1.6,2.5,2.1,4.3,1.8c8.1-0.9,16.2-2.5,24.4-2.6c5.7-0.1,11.4,2.3,17.2,2.8c9.9,0.7,19,5.1,29.1,5.3c5.6,0.1,11.6,2.5,17.5,3.8
		c1.8,0.4,3.1,2.1,2.7,4.2c-0.3,2-1.6,3.5-3.6,3.5c-5.2,0-10.4-0.3-15.7-1.3c-11-2.2-21.4-7.2-32.8-7.6c-3.8-0.1-7.3-1.7-11.1-2.1
		c-9.4-1.1-18.5,1.8-27.8,1.7c-3.4,0-6.5,0.7-9.2-2.2c-2-2.1-4.3-3.1-7.5-1.7c-2.8,1.2-5.9,0-8.5-1.4c-6.8-3.5-14.3-3.6-21.5-4
		c-4.4-0.2-4.6-1.6-4.3-4.7c0.5-5.5,0.9-11.2,0.2-16.4c-0.9-6.1-1.5-12.3-2.5-18.4c-1.2-7.1,2.8-11.7,5.8-16.8
		c2.6-4.3,6.5-7.8,9.6-11.9c3.9-5,4.3-10.8,4.1-17c-0.4-16.2-1.8-32.5,6.3-47.5c1.9-3.5,4.6-6.4,7.7-8.3c4-2.4,8-4.6,11.4-7.8
		c4.4-4.1,10.2-6.4,13.8-11.6c1.5-2.2,3.6-4.2,4.1-6.6c1.4-7.2,7.5-10,12.9-10.2c8.2-0.3,16.2-2.2,24.4-2.4c3.2-0.1,6.4,0.1,9.2,2.1
		c1.2,0.8,2.7,0.2,3.5-0.2c3.4-1.6,7.1-2.6,10.2-4.4c9.3-5.2,18.5-10.3,29.2-12.7c3.3-0.7,6.1-3.8,9.3-5.3c7.4-3.7,15-6.9,22.3-10.7
		c3-1.6,6.1-0.1,9.1-1.5c5.6-2.7,10.1-7.5,16.6-8.5c1.5-0.2,0.4-2.4,1.1-3.6c4.6-8,8-16.8,14.6-23.6c0.8-0.8,1.8-1.5,2.8-1.9
		c4.6-1.8,6.8-5.4,9-9.7c2.3-4.5,6.6-7.9,10-11.7c2.3-2.5,2.9-4.7,3.3-7.6c0.6-4-1.8-4.7-4.6-6c-3.3-1.6-6.5-3.3-10.3-2.7
		c-1,0.1-1.9,0-2.7-1c-10.2-12.9-21.8-24.5-32.6-36.8c-3.7-4.3-6.1-9.8-9.1-14.8c-2.6-4.4-6.8-7.8-8-13c-1.5-6.9-6.5-12.1-8.8-18.5
		c-2.7-7.6-7.8-14.3-9.4-22c-2.2-10.7-5.2-21.4-1.6-32.7c2.7-8.2,4.8-16.7,6.2-25.2c1.5-8.9,2-18.2-0.5-27.1
		c-2.2-7.7-2.7-15.7-4.5-23.4c-0.4-1.6,0.6-3.8,2.6-4.3c2.2-0.5,3.6,1.1,4,2.9c1.5,6.5,3,13,4,19.6c1.9,11.4,3.7,23,0.8,34.3
		c-1.9,7.5-3.4,15.2-5.9,22.6c-2.4,6.8-1.1,13.8-0.7,20.8c0.7,11.6,6.1,21.6,11.1,31.4c7.6,15.1,14.5,30.8,24.7,44.4
		c3.6,4.8,8.4,8.7,12.6,13c2,2,4.2,3.6,5.6,6.2c3.2,6,10.2,8.4,14.1,13.9c1.2,1.7,5.1,2.2,7.7,3.6c8,4.4,16.3,9.1,24.7,11.2
		c8.2,2.1,17.8,1.5,26.6,1.1c5.1-0.2,11.4-2.8,16.3-5.1c7.6-3.7,14.2-9.6,19.6-16.8c2.8-3.7,2.8-8.6,7.1-11.9
		c3.8-2.9,3.9-0.2,4.5,1.6c0.7,2.2,0.3,4.6-1.1,6.6c-2.8,4.2-5.8,8.3-8.4,12.6c-2.7,4.5-6.9,8.6-11,10.2c-5.2,2-9.6,7.5-16.3,5.8
		c-1.1-0.3-2.9,0.8-3.9,1.8c-4.3,4.3-9.7,5.4-14.7,2.7c-5.3-2.8-10.7-1.6-15.7-1.4c-4.8,0.2-8.3-1.3-12-3.4c-0.7-0.4-1.4-0.7-2.2-1
		c-1.6,4.7-2.9,9.2-4.7,13.6c-1.4,3.7-1.4,6.2,1.4,9.8c5.3,7,11.8,13,16.7,20.3c3.4,5,7.2,10,7.3,16.6c0,0.3,0.1,0.7,0.3,0.9
		c4.1,3.4,2.8,7.9,2.3,12.2c-1.1,10.3,3.3,20.2,2,30.5c-0.2,1.7,0.8,2.6,2.3,3.3c7.1,3.5,14.8,6.4,21.1,11.1
		c4.1,3.1,8.7,5.7,12.8,8.8c6,4.4,9.4,10.4,14,15.6c3.3,3.8,4.9,8.5,7,12.9c4.3,9.4,8.1,19.1,10.4,29.3c1.2,5.4-0.7,10.5-0.5,15.7
		c0.3,11.3-6.3,19.4-12.7,27.5c-1.3,1.7-3.2,3.2-3.9,5.1c-2.2,6.5-7.6,9.6-13,12.5c-6.4,3.3-11.8,7.9-17.2,12.5
		c-1,0.9-2.1,0.8-3.3,0.8c-3.8,0.1-6.5,2.2-10.1,5.2c12-1,22.8,0.6,33.7-1.9c8.6-2,17.9-0.5,26.7,1.1c4.2,0.8,7.7-0.8,11.6-1
		c1.6-0.1,2.7-0.6,3.4,1.3c1.8,5,6.2,3.7,9.6,3.1c2.4-0.4,4.9-0.5,7.3-0.8c-5.8-13.6-8-27.9-10.3-42.4c-1.5-9.6-3.5-19.3-4.4-29
		c-0.8-8.5-2.2-16.8-3.5-25.2c-1.7-11.2-3.6-22.3-4.1-33.6c-0.2-4.8-1.6-9.9-1.4-14.6c0.5-11-5.4-20.2-6.4-30.6
		c-0.2-1.7-0.4-3.6-1.8-4.2c-1.6-0.6-2.5,1.4-3.4,2.4c-3.3,4.1-7.3,5.6-12.6,5.4c-5.4-0.2-10.8,1-16.2,1.2
		c-4.3,0.2-8.5-1.4-12.9-1.6c-5.9-0.3-12-1.2-17.4-4.4c-3.6-2.1-5.6-4.4-4.4-9.1c8.7,1.7,16.9,5.1,25.8,6.1c8.4,1,16.4-0.9,24.6-0.5
		c0.5,0,1.3-0.5,1.6-0.9c4-5.1,8.9-4.7,14.7-2.1c-0.6-5.5-1.6-10.7-2.5-15.7c-1-5.2,0.3-9.3,2.3-13.6c0.4-0.9,1.4-1.7,1-2.7
		c-3.4-8.7,3.8-13.2,8.1-17.9c3.2-3.5,6.1-7.3,8.8-11c5.6-7.5,11.3-15.1,14.3-24.3c1.2-3.6-0.1-8.5,4.7-10.6c0.1,0,0.1-0.3,0.1-0.5
		c0.4-13.5,3.2-27-0.7-40.5c-1.8-6.2-1.6-12.8-1.8-19.1c-0.2-9.1-2.3-17.9-2.6-26.9c-0.4-10.7-2.5-21.3-3.6-32
		c-1.1-9.7-1.5-19.5-1.2-29.3c0-1.3,0.4-2.4,1.6-2.8c1.2-0.5,1.9,0.9,2.7,1.1c4.5,1.4,6.9,5.1,10,8c3.3,3,10.3,0.7,13.1-3
		c2-2.7,4.3-5.3,6.2-8.2c4.6-6.8,5.1-14.2,5.5-22c0.4-9.3-0.8-18.5-1.3-27.8c-0.2-4.4-2-9-4.2-12.9c-3.6-6.6-10.7-6.8-15.7-1.2
		c-2.1,2.4-4.5,4.7-6.8,7c-0.7,0.7-1.5,2.3-2.6,0.6c-0.7-1-2.8-1.3-1.7-3.5c1.3-2.7,2.8-5.2,4.7-7.4c2.2-2.4,2-4.3-0.3-6.4
		c-5.3-4.8-10.4-9.8-15.4-14.8c-8-8.1-16.7-16-20-27.8c-3.9-14.2-14.7-23.2-26-31.5c-0.4-0.3-1-0.6-1.3-0.4
		c-6.4,2.1-13,0.2-19.5,0.9c-5.3,0.5-6.3,5.6-9.1,8.7c-1.2,1.4-1.5,3.6-2.4,5.3c-1,1.7-2.7,2.6-4.7,1.9c-2-0.7-2-2.6-1.7-4.2
		c0.4-1.7,1.4-3.3,1.9-5c0.8-2.7,3.2-5.1,0.4-8.5c-1.5-1.8,1.7-4.1,3.7-5c5.3-2.5,10.6-5.2,16.2-6.9c4.8-1.5,9.1-4.1,13.8-5.9
		c2.5-1,4.5-1.3,7-0.9c-0.6,3.3-2.3,4.7-5.2,6c-4.5,1.9-9.5,3.2-13.9,7.3c5.3,1.2,9.8-1.5,14.5,0.2c4.5,1.6,8.7,3.6,12.4,6.4
		c11.5,8.8,18.1,21.1,23,34.3c2.2,6,5.5,11.2,9.5,15.8c6.3,7.2,11.8,15.1,19.6,21.1c3.3,2.5,6.8,2.1,9.9,1.1
		c7.5-2.6,10.2-2.2,15.2,3.7c4.8,5.7,6,12.5,7.3,19.6c1.5,8,1.2,16.2,1.4,24.1c0.4,16.1-3.1,31.6-15.5,43.5
		c-5.1,4.9-11.5,5.9-18,6.4c-3.1,0.2-4.7-2.6-7.5-4.2c-1.5,4.3,0.2,8.2,0.7,11.8c2.1,13.1,3.5,26.3,4.8,39.5
		c1.6,16,3.9,31.8,5.9,47.8c0.2,1.8,0.3,3.7,0,5.5c-1.5,9.9,3.2,16.4,10.2,22.8c5.1,4.7,9.1,10.8,13.3,16.4
		c2.9,3.9,7.6,5.3,10.3,9.5c2.6,4,7.8,6.5,5.4,12.8c-0.5,1.4,1.2,1.8,2.6,2.3c10.4,4,19.8,10,29.5,15.3c9.9,5.4,20.2,10.6,31.7,11.5
		c3.6,0.3,5.6,2.5,8.1,4.2c5.7,3.8,12.6,4.5,18.7,7c6.9,2.8,14.2,2.3,21.2,4c6.7,1.7,13.4,3.4,20.1,5.5c7.8,2.5,14.9,7.4,22.6,8.7
		c8.3,1.5,13.3,6.5,19.1,11c9.9,7.8,15.6,18.5,19.2,30.4c1.5,4.8,5.1,8.8,5.8,13.8c1.7,12.3,6.4,23.8,8.3,36.1
		c1,6.3,4.9,11.6,7.9,17.2c4.1,7.8,5,16.5,6,25c0.8,6.8,1.9,13.4,1.3,20.4c-1.1,11.8,1.1,23.5,4,35c1,4.1,4.8,5.1,8.4,5.6
		c2.3,0.3,4.9-0.3,6.1,2.1c0.8,1.6,0.4,3.5-1.2,5c-2.3,2.2-5.1,4.2-7.9,2.7c-8.8-4.6-18.4-2.3-27.5-3.6c-2.7-0.4-5.4-0.2-8.2-1.4
		c-4.3-1.9-8.9-0.7-13,1c-5.1,2-10.7,0.9-15.7,3.3c-0.9,0.4-2.6,0.5-3.4-0.1c-6.2-4.4-13.5-2.5-20.2-3.4c-5.4-0.7-11.7-0.8-17.2,2.2
		c-1.8,1-4.2,0.6-6.3,0c-4.1-1.3-8.3-0.4-12.4-0.6c-2.5-0.1-2.4,2.8-4.2,3.8c-3.4,1.9-6.6,4.2-9.9,6.2c-2.4,1.5-3.7,3.3-1.7,6.1
		c0.7,0.9,1,2,1,3.2c0.4,5.9,2.3,11.1,7.4,14.7c2.1,1.4,2.4,5,0.9,5.5c-6.4,2.4-3.4,7.4-3.1,11c0.4,3.4,1,7,0.6,10.3
		c-0.9,7.1,6.2,11.8,12.8,8.2c3.9-2.1,8.3,0.5,12.6-2c9.9-5.6,21.2-3.4,31.9-4.2c2.3-0.2,4.5-0.1,6.8-1.4c3.6-2,7.2-2,11.4,0.2
		c3.8,2,8.8,2.1,13.3,2.5c7.4,0.6,14,4.2,21.1,5.7c6.9,1.5,13.9-0.2,20.6,1.9c0.9,0.3,1.9,0.5,2.8,0.7c4.2,0.6,8.3,1.5,11.5-2.9
		c1.4-2,3.5-4.2,6.4-1.1c2.6,2.8,2.3,4.9-0.1,7.7c-5.5,6.5-12.1,8.2-19.9,5.1C753.6,786,752.2,786,750.3,786.2z M670.8,867
		c-3.3-0.3-5.2,0.1-7.4-0.8c-17.2-6.8-33.2-16.3-50.3-23.3c-12.2-5-23.7-11.6-36-16.4c-3.5-1.4-7.3-2.7-10.5-5.1
		c-8-5.8-12.5-14.5-18.7-21.7c-6.3-7.3-9.1-16.9-14.5-24.8c-1.8-2.6-3.7-5.2-6.4-6.8c-5.9-3.6-10.9-8.4-16.2-12.8
		c-10.5-8.7-15.3-21.2-21-33.1c-2.3-4.8-3.4-10.4-8-13.8c-3.1-2.3-5.7-1.8-6.5,1.3c-1.3,5.1-1.4,10.1,0.1,15.3
		c2.2,7.6,5.2,14.8,8.9,21.7c3.6,6.6,7.1,13.2,9.8,20.2c1,2.5-0.4,5.6,1.9,7.4c2.9,2.4,2.2,5.5,1.8,8.3c-0.4,2.5-1.6,5.7-4.9,5
		c-3.6-0.7-7.4-1-10.7-3.1c-2.9-1.8-6-3.9-9.3-4.5c-10.3-2.1-18.3-8.5-26.8-13.8c-8.4-5.3-16.1-11.7-23.9-17.8
		c-3.2-2.5-5.8-5.9-9.2-8.2c-2.6-1.8-9.3-1.9-10.5,0.1c-2.2,3.5-1.5,8.5,1.3,11.8c4.1,4.8,9.6,8.1,14.4,12
		c12.9,10.4,27.6,18.3,39.8,29.7c0.8,0.8,2.5,1.2,1.9,2.4c-0.7,1.4-2.3,0.7-3.5,0.4c-1.2-0.4-2.7-2.3-3.7-0.4
		c-1.8,3.4-3.8,1.5-5.8,0.7c-4-1.5-16.7,3-18.5,6.8c-0.1,0.3-0.2,0.7-0.2,1c1.4,4.4,1.1,9.4,5,13c4.3,4,8.8,7.5,14.3,9.3
		c2.3,0.8,3.1,2,2.5,4c-0.6,2.1-2.7,1.4-3.8,1c-4-1.5-8.4-1.2-12.4-2.5c-2.7-0.9-4,0.7-3.5,3.1c0.9,4.4,1.9,9.1,6.4,11.4
		c8.8,4.6,17.6,9.1,26.9,12.5c2,0.7,5.1,1.8,4.3,4.6c-0.8,2.7-4,2.7-6.3,1.9c-4.1-1.3-8.2-0.3-12.3-0.7c-1.9-0.2-2.1,1.2-2.7,2.3
		c-0.8,1.4-0.3,2.8,1,3.4c2.5,1.2,4.4,3.2,7,4.5c8.3,4.3,17.9,5,26,9.8c3.5,2.1,7,3.8,11,4.8c2.6,0.6,5.2,0.2,7.9,0.7
		c6.4,1.2,13.2,3,19.4,2c12.7-2.1,23.9,2.1,35.1,6.5c5.6,2.2,10.9,5,16.9,6.1c2.8,0.5,5.7,1.8,7.3,4.6c0.5,0.8,0.9,1.1,1.8,1.3
		c8.1,1.6,14.9,6.3,22.3,9.6c6.9,3,13.1,7.8,20.1,10.1c10.2,3.4,19.4,8.8,29.4,12.7c12.4,4.7,24.5,10.5,36.5,16.2
		c6.4,3,14.3,3,19.3,9c0.6,0.7,1.8,0.5,2.8-0.1c3.7-2.6,7.1-1.3,10.6,0.4c1.4,0.7,3,0.6,4.6,0.7c6.7,0.4,13.6,0.7,19.8,2.7
		c5.3,1.7,10.3,3.6,16,3.9c2.8,0.2,4.8,0.7,6.9-1.6c1.8-2,3.9-3.9,4.2-6.5c0.2-2.3-1.2-4.7-1.1-7c0.2-5.5-0.1-11.5-1.7-16.3
		c-3.3-9.9-2-20.1-3.1-30c-1.3-11.5,0.4-23.3-1.4-34.9c-0.8-5-0.4-10.1-1.5-14.9c-1.7-7.4-2.2-15-4.3-22.4
		c-1.4-5.2-1.4-10.7-2.9-15.9c-2.6-9.2-6.4-18.2-7.6-27.7c-0.4-3.1-3.6-6.6,0.2-9.8c0.5-0.4,0.2-2.6-1.1-1.9
		c-4.3,2.2-8.3-1.1-12.6-0.4c-2.8,0.4-6.3,0.2-8.6-1.3c-7.6-4.7-16.4-4.5-24.6-6.8c-2.9-0.8-6.5-0.5-9.6-1.7
		c-0.8-0.3-2.2-0.2-2.9,0.3c-5.3,4.1-11.7,2-17.3,2.3c-11.9,0.6-23.2,3.6-34.5,6.6c-10.4,2.7-22.3-2.4-21.6-15.8
		c0.2-3.2,1.1-7-0.2-9.4c-2.5-4.3-2.4-8.3-2.5-13c-0.2-6.5-2.6-13-4.6-19.4c-1.5-4.6-3.9-9.1-3.6-14.2c0.1-2.6,1-4.9,3.9-4
		c2.8,0.9,5.3,2.9,5.4-2.2c0-0.4,0.6-1,1-1c5.2-1,9-5.6,14.6-5.4c0.8,0,1.8,0.2,2-0.9c0.6-3.4,3.4-1.8,5.3-2.4
		c5.5-1.7,11.1,0.2,16.7-1.4c4.7-1.3,10.1-2.2,14.6-0.9c5,1.4,9.8,0.2,14.7,1.3c2.4,0.6,4.4,2.9,6.8,2.1c4.6-1.5,9.4-1.7,14-2.5
		c6.5-1.1,12.7-2.8,19.2-1.3c5.7,1.3,11.6-1.6,17.2,1.6c2.4,1.4,2.6-0.7,2.5-2.6c-0.2-3.5-2.5-6.6-2.7-9.7
		c-0.6-8.1-2.4-16.1-1.4-24.4c1.2-10.4-0.5-20.8-2-31c-1.1-8-5.5-14.5-10.5-21.1c-0.2,3.3,0,6.6-4.6,6.3c-0.4,0-1.3,1.2-1.3,1.9
		c-0.3,3.5-3.3,3.7-5.3,3.2c-2.1-0.5-3.5-2.7-3.3-5.5c0.2-4,0.4-8-0.1-12c-1.1-8.4-0.4-16.4,2.9-24.3c2.5-6.1,3.8-12.3,0.8-19
		c-1.3-2.8-3.7-5-4.4-8c-4.4-19-14.9-32.5-33.6-39.4c-8.5-3.1-16.4-7.8-25.4-9.4c-4.4-0.8-8.9-4.4-12.1-3.9
		c-4.9,0.7-9.2-1.1-13.6-1.5c-8.1-0.7-16.2-3.5-23.8-6.6c-7.5-3.1-14.5-7.6-22.6-8.6c-6.6-0.8-12-4.4-18-6.4
		c-5.9-1.9-9.3-7.4-15.3-9c-1.7-0.5-3.9-0.1-5.4-1.9c-3.4-4.1-8.7-4.9-13.3-7c-2-0.9-2.8-0.3-4.2,0.8c-3.2,2.5-3.8,6.4-6.2,9.4
		c-9.4,11.7-13.3,24.2-6.3,38.7c1.1,2.2,3.2,4,3.6,6.2c1.4,7.8,4.9,14.8,7.2,22.3c1.5,4.7,0.9,5.4-4.1,4.7c-0.9-0.1-1.8-0.6-2.7-0.9
		c-2.8-1.2-5.4-2.2-8.8-1.2c-3.5,1-8.1,0.4-10.2-2.1c-3.4-3.8-8-5-11.7-7.7c-6.1-4.5-13.1-8.4-16.7-15.2c-2.8-5.3-8.5-8.9-9-15.5
		c0-0.5-1-1.3-1.4-1.2c-3.2,0.3-4.2-1.9-5.3-4.2c-0.8-1.7-2-3.5-4.1-2.8c-2,0.7-2.8,2.8-2.8,4.8c0,1.8,0.6,3.7,0.8,5.5
		c0.8,13.1,6.7,25.1,8.5,38.1c0.3,2.4,1.4,4.7,1.6,7.1c0.7,9.1,0.3,18.3,1.8,27.3c1.8,10.6,3.5,21.3,4.9,31.9
		c2.2,16.5,5,32.9,8.5,49.2c1.9,8.8,1.1,18,3.8,26.7c1.2,3.7,1.5,7.6,0.2,11.6c-0.8,2.5,0.5,4.4,3.1,5.3c1.3,0.5,3.5,1,2.5,2.9
		c-1.9,3.4,0.8,2.3,2.2,2.9c1.9,0.9,3.9,1.6,5.5,3.3c4.4,4.7,7.4,9.8,9.5,16.2c5.2,16.2,15.7,28.9,30,38.1
		c9.7,6.3,15.1,15.8,20.3,25.5c1,1.9,1.6,3.9,2.8,5.7c4.9,7.2,11.1,13.4,15.4,21.1c1.9,3.4,5.3,5.8,8.9,7.6c4.6,2.3,9.3,4.4,14,6.6
		c8.5,4.1,16.8,8.5,25.5,12.2c7.6,3.2,14.5,7.7,22.3,10.6c7.2,2.7,13.9,7.7,20.8,11.8C661.7,860.7,666.8,861.7,670.8,867z
		 M443,872.5c-4.1-2.6-6.1-5.9-7.4-9.9c-0.7-1.9-0.1-2.8,1-3.7c3.8-3.1,3.6-4.9-1.2-6.5c-5.3-1.9-9-6.2-11.6-10.4
		c-2.4-4-1.7-9.8-4.5-14.2c-0.2-0.3,0.8-1.2,1.2-1.9c1.8-2.9,5.7-5.6,1.2-9.4c-0.4-0.4-0.7-1.1-0.8-1.7c-0.8-7.3-4-14-5.5-21.1
		c-1.6-7.2-3.5-14.3-3.4-21.7c0-3.1-1.4-4.8-3.4-6.7c-5-4.7-11.4-8.2-14.3-14.8c-1-2.2-1.9-2.4-3.9-2.5c-12.6-0.4-25.2-0.4-37.8-0.6
		c-16.2-0.2-32.3-2.9-48.6-0.7c-2.8,0.4-5.9,1.1-9.2,0.6c-9.6-1.5-19.1,1.3-28.7,1.1c-5.6-0.1-10.8,3.6-16.4,2.4
		c-8.4-1.8-16.5-0.3-24.8,0.2c-2.5,0.1-3.5,1.7-4.1,4.1c-1.7,6.8,1.3,13.7-0.9,20.4c-0.2,0.7,0.3,1.6,0.4,2.4
		c1.2,9.8,0.8,19.7,0.6,29.5c-0.4,18.7,1.6,37.3,1.1,55.9c0,0.3,0.3,0.6,0.4,0.9c0.8,5.5,1.8,11,2.3,16.5c0.4,4.2,2.5,7.1,6.2,7.4
		c10.3,0.7,20.5-1.5,30.8-1c1.5,0.1,2.8,0.1,2.4-2.4c-1-6.8-1.1-13.8-4.5-19.9c-1.6-2.8-2.1-5.7-3-8.6c-1.3-4.3,0.5-8.1,0.3-12.2
		c-0.5-10.1,3-19.2,6.6-28.4c1.6-4.2,4.8-7.3,6.6-11.4c2.3-5,1.4-10.3,2.7-15.4c1.2-4.7,0.8-10.3,3.3-14c3-4.6,8.7-7.6,14.3-8.6
		c11.9-2.1,23.8-5,36.1-2.3c5.9,1.3,12.3,0.8,18,2.5c18,5.5,32.9,17,48.8,26.5c4.1,2.5,5.2,5.6,2.3,9.8c-2.9,4.2-3.2,9.4-3.5,14.1
		c-0.4,5.3-1.4,10.7,0.4,16.4c2,6.6,2.9,13.9,2.2,21c-0.7,7.1-2.4,14-5.5,20.4c4.6,1.4,8.6-0.5,12.7-0.8c3.9-0.2,6.9,2.7,11,1.9
		c4.4-0.9,9-1.1,13.4-0.6C432,875.9,437.1,874.3,443,872.5z M332,907c1.2,0,2.4,0.3,3.5-0.1c4.8-1.6,10.7,0.9,14.6-4.4
		c0.8-1.1,3-1.5,4.5-1.4c2.5,0.1,3.6-1,4.3-3c0.5-1.5,1.8-2.2,3-3.1c5.3-3.8,9.7-8.9,13.6-13.8c11.4-14.6,11.8-31.6,7-48.8
		c-2.5-9-7.4-17.3-13.3-24.3c-8.8-10.4-19.3-18.3-34.3-17.1c-4.3,0.3-9,1.3-12.8-0.5c-6.2-2.9-12.3-4.5-19.2-3.5
		c-3.5,0.5-6.6,1.3-9.6,3.2c-7.2,4.5-12.3,11.1-16,18.4c-3.9,7.8-8.2,15.5-9.7,24.4c-0.8,4.5,0.4,9.2-1.6,13.6
		c-1.9,3.9-1.1,9,0.5,11.8c3.8,6.3,5.1,13.3,7.1,20c3.5,11.6,11.5,17.8,21.9,22c4.1,1.6,8.4,2.5,12.7,3.5c4.3,1,8,2.2,12.3,0.5
		c0.4-0.1,1.1,0,1.4,0.3C324.7,907.6,328.4,907,332,907z M341.4,676.9c2.1-15.3-1.5-29.2-8.5-42.4c-5.4-10.2-8-21.2-8-32.8
		c0-6.8,10.1-18.9,16.9-19.5c8.2-0.7,15.2,1.7,20.1,8.8c5.3,7.6,6.2,16.6,5.6,24.9c-0.8,10.1-0.5,21.2-8.6,29.4
		c-1.1,1.1-0.8,2.7-1,4.2c-0.8,7.7,2.2,14.9,2.6,22.5c0.2,3.5-0.7,7,0.4,10.4c0.8,2.3,2.1,4.4,4.5,3.4c4.3-1.9,9.1-1.7,13.3-4.5
		c10.5-7.1,20.4-14,25.8-26.5c3-7,7.6-13.8,10.7-20.9c4.1-9.4,6.2-19.9,3.5-30.4c-1.3-4.9-1.6-10-3.5-14.8
		c-2.8-7.2-7.6-13.2-10.5-20.2c-2.7-6.4-7.4-11.8-13.4-15.1c-6.6-3.6-12.9-7.7-19.9-10.6c-8.3-3.5-16.6-5.9-25.5-3.4
		c-2.3,0.7-4.6,0.8-6.8,0.7c-4-0.2-7.1,1.5-10.6,3.1c-7.1,3.1-12,8.3-15.5,14.9c-2.8,5.2-6,10.3-7.5,15.9c-3.3,11.7-4,23.5-3.6,35.9
		c0.5,15.1,4.9,28.5,10.7,41.8C317.8,664.4,328.5,671.9,341.4,676.9z M342.8,699.5c0.6,7-0.8,13.1,1,19.1c0.7,2.4-0.5,4.3-2.8,5.2
		c-2.1,0.8-2.8-1.4-2.9-2.5c-0.6-9.3-3.8-18.4-1.5-27.8c0.2-0.7,0-2-0.4-2.3c-0.8-0.5-2-0.4-2.7,0.6c-0.7,1.1-1.3,2.3-1.7,3.5
		c-0.9,3.1-2.8,4.5-5.9,3.2c-1.7-0.7-3.3-0.6-4.9-0.5c-8.7,0.4-17.4-0.9-26.1-0.1c-2.3,0.2-4.7,0.4-6.7-1.2
		c-1.7-1.4-2.5,0.1-3.8,0.8c-9.4,5.5-15.1,15.1-24.5,20.7c-10,6-16.7,15.9-25.9,22.9c-0.6,0.5-1.5,1-1.2,2c0.5,1.3,1.7,0.7,2.6,0.8
		c2,0.2,3.7-1.7,5.7-0.8c3.5,1.6,7.2,0.8,10.8,0.7c14.2-0.4,28.1-4.4,42.5-3c5.5,0.5,11.2-0.6,16.8-0.8c18-0.7,36,1,54,1
		c6.5,0,13.2-0.9,19.4,0.3c7.7,1.5,7.7,0.3,10.7-5.3c1.9-3.5,4-4.7,7.5-5.1c6.8-0.8,12.2,2.3,16.7,6.7c3,2.8,4.8,2.8,7.2-0.2
		c3.7-4.5,8.4-7.9,13.2-11.1c8-5.4,14.7-12.7,24.6-15.1c1.7-0.4,2.9-3.6,2.9-5.9c0-2.3-2.4-0.9-3.6-1.3c-2-0.7-4.3-1.4-4.6-3.9
		c-0.5-4.2-3.3-4.5-6.5-4.1c-9.7,1.4-19.5,1.1-29.3,0.9c-4.6-0.1-9.4-2.1-13.7-0.7c-8.2,2.5-16.5,3.2-24.8,2.7
		c-5.5-0.3-10.5,3.5-15.6,1.8c-4.1-1.3-3.7,0.6-3.7,3.1c0,5.2,0.2,10.5-0.1,15.7c-0.1,1.9-0.7,4.7-3.6,4.5c-2.9-0.2-2.3-2.8-2.2-4.7
		c0.4-7.3-3-14.2-2.2-21.6c0.4-3.3-3-2.3-4.8-3c-1.6-0.6-2.1,0.6-2,1.8C351.3,703.2,347.6,701.9,342.8,699.5z M505.3,527.2
		c1.6-0.4,3.2-1.3,4.4-1c3.2,0.9,2.4-1.7,1.9-2.5c-2.4-4-2.5-8.8-4.8-12.8c-5.2-9.2-7.2-19.1-6-29.6c0.8-7.2,5.6-12.7,8.6-18.8
		c2.2-4.5,7.9-7.2,5.5-13.6c-0.3-0.7-0.2-1.9,0.2-2.4c3.5-4.7,0-8.6-2.7-10.8c-6.2-5-11.1-11.1-15.8-17.4c-2.7-3.5-5.5-6.9-8.3-10.3
		c-0.8-1-1.7-2.1-3.3-1.9c-1.7,0.3-1.1,1.9-1.4,2.8c-1.1,4.1-1.8,8.2-2.7,12.4c-3.5,15.3-11.7,28.1-21.6,39.9
		c-3.4,4.1-7.5,7.8-9.8,12.8c-0.8,1.8-2.4,4,1.8,4.3c1.9,0.1,3.5,1.9,4.8,3.9c5.7,8.2,11.8,16.2,17.8,24.3
		c5,6.6,12.2,10.6,18.6,15.3C496.2,524.4,500.9,525.9,505.3,527.2z M489.6,769c-2.3-5.2-6.9-9-10-14c-2.4-4.1-4-8.5-6.5-12.5
		c-4.3-6.7-6.1-14.3-7.2-22.1c-0.2-1.3,0.6-2.9-0.9-3.6c-1.7-0.9-2.8,0.9-3.7,1.6c-10.4,8.1-20.6,16.4-30.9,24.6
		c-1.6,1.3-2.1,2.5,0,3.9c11.8,7.7,22.4,17.5,35.7,22.7c7.1,2.8,13.8,7,21.4,8.4C488.4,774.7,482.3,770.3,489.6,769z M331.9,605.6
		c0,0.5,0,1,0,1.5c1.2,13.9,9.3,25.2,14.4,37.6c0.8,2,2.1,1,3.5,0c2.4-1.7,1.6-5.2,3.9-6.6c3.8-2.2,4-5.6,4.2-9.3
		c0.2-5.6,2.2-10.8,1.5-16.8c-0.4-3.9,0-7.9-1.6-11.7c-2.6-6.4-8.9-10.4-14.5-9.3C337,592.3,331.9,598.8,331.9,605.6z M283.2,787.8
		c0.9-0.7,1.6-1.4,2.4-2c8.7-6.3,18.6-9.7,29.1-7.3c8.5,2,16.7,4.4,25.5,3.5c2.6-0.3,5.2-0.4,7.9,0.5c10.3,3.3,19.4,8.6,26.6,16.8
		c1.9,2.2,3.7,4.6,5.3,7c1,1.6,3.7,0.8,3.7,3.2c1.7-0.8,0.9-2.7,1.8-3.9c0.6-0.7,0.4-2.1,1-2.7c2.3-2.2,1.1-3.2-0.8-4.9
		c-3.1-2.8-7.2-3.9-10.5-6.2c-9.5-6.7-18.6-14.2-29.9-17.7c-17.7-5.5-35.6-3.8-53.4-1c-0.6,0.1-1.1,0.7-1.6,1.1
		C285.8,777.6,282.5,781.5,283.2,787.8z M419.7,773.8c-0.9,4.5,1,12,5.7,23.2c4.2-3.1,6.4-8,10.4-11.5
		C429.7,782.2,424.8,777.9,419.7,773.8z M353.9,679.9c0.1,0,0.2,0,0.3,0c-1.1-8-2.2-16.1-3.3-24.1c-0.2-1.3-0.7-1.8-1.9-1.6
		c-1.5,0.2-1.2,1.5-1.1,2.3c0.8,5,1.2,10.1-0.1,15c-1.1,4.4,2.5,8.2,1.2,12.8c-0.7,2.5,1.8,0.1,2.6,1c1.1,1.1,2.1,1,2.2-0.9
		C353.9,682.9,353.9,681.4,353.9,679.9z M366,513.5c-3.2,4.4-3.1,9.5-4.1,14.4c-0.1,0.7-0.3,1.9,0.9,2c1.1,0,2.4-0.4,2.7-1.5
		C366.4,523.4,365.3,518.5,366,513.5z"/>
	<path class="st13" d="M457.8,1527.8c-0.5,1.2-1,2.5-1.6,3.9c1.6,0.6,4.5-0.2,4.4,2.3c-0.2,2.8-3,1.9-4.8,2c-6,0.2-10-4.4-15-6.6
		c-1.3-0.6-2.4-1.8-3.8-2.2c-1.9-0.6-3.7-3.3-5.8-1.6c-2.3,1.8-2.8,4.9-2.3,7.7c1.9,9.3-1,18.1-2.6,27c-0.8,4.2,0.9,8.4,1.9,12.4
		c1.7,6.5,1.9,13.4,3.9,19.6c1.8,5.5,1.8,12.4,8.1,16c2.2,1.3,3.5,4.2,2.4,6.5c-1.4,3-0.4,5.8,0.4,8.1c3.7,10.7,1.5,22.1,3.9,32.8
		c1.9,8.3-1,16.4,0.3,24.5c0.2,1.2-0.7,2.1-1,3.2c-0.9,2.9-1.9,5.6-0.6,9c1.8,4.9-2.2,9.4-2.1,14.4c0,0.6-0.9,1.4-1.9,1.2
		c-0.8-0.2-0.9-1-0.7-1.6c1.9-5.8-1.4-11.2-1.1-16.8c0.2-4.3,1.3-8.5,1.5-12.6c0.3-7.3,1.9-14.7,0.4-22c-1.1-5.5-2.1-11-1.8-16.6
		c0.3-5-1.2-9.6-2.6-14.2c-0.6-1.8-2.1-3.2-0.7-5.5c0.5-0.8-0.3-3.1-1.2-4c-7.1-7.5-8.5-17.4-10.3-26.8c-1.5-7.8-3.9-15.4-4.7-23.5
		c-0.7-7.1,0.6-13.8,0.8-20.6c0.2-5.4-0.4-10.9,0.6-16.4c0.4-2.4-0.2-4.9,0.9-7.3c0.4-0.8,1.3-2.1-0.5-3.3c-2.6-1.7-3.3-4.2-0.4-6.5
		c0.8-0.6,0.5-1,0.1-1.4c-5.1-6.4-1.8-14.8-5.1-21.6c-4.3-9.2-4.2-19.3-6.4-28.9c-1.2-5.1-2.2-10.3-2.5-15.4c-0.4-8-0.3-16-0.1-24.1
		c0.3-9.2-1.5-18.2-1.8-27.4c-1.3,2.9-3.3,5.7-1.7,9c1.4,2.9-0.1,5.8-0.9,8.1c-2.2,6.4-0.6,12.8-1.5,19.2c-1.6,11.9-1.2,24.1-2.6,36
		c-0.9,7.9-2.4,15.8-3.5,23.7c-1.4,10-3.9,20-4,30.2c0,3.3-0.9,6.5-1.1,9.8c-0.6,11.4-0.7,22.7,4,33.6c2.3,5.3,0.7,11.2,1.9,16.8
		c2.7,12.6,2.5,25.5,2.1,38.3c-0.4,11.6-1.3,23.3-1.8,34.9c-0.3,7,0,14-0.2,21c-0.2,6.1,0.8,12.3-0.9,18.3c-1.5,5.2,2.2,9.8,2,15
		c-0.3,9.1,0.7,17.8,3.5,26.7c1.7,5.5,1.3,11.8,1,18c-0.7,15.3-4.2,30.4-1.7,46c1,6.5,1.9,12.8,4.2,19c2.1,6,1.1,12.5-0.7,18.3
		c-2.5,8-3.4,15.9-0.6,23.6c2.9,8.1,2.3,16.5,3.4,24.8c2.4,19.4,2.2,38.9,3.6,58.4c0.5,7.2,3.1,14.5,1.2,21.8
		c-0.5,1.9,1.1,2.2,1.6,3.2c0.7,1.4,2.5,3.1,1.3,4.4c-1.2,1.3-2.7,3-5,2.7c-0.2,0-0.3,0-0.5,0c-9.3,0-9.2,0-10.2,8.9
		c-1,9.7-2.4,19.3-5.9,28.7c-2,5.4-2.6,11.3-4,17c-0.7,2.7-2.2,3.6-4.1,4.2c-1.5,0.5-3.6,0.8-4.6-0.9c-1-1.8-1.1-4-0.1-5.7
		c4.8-8.3,6.7-17.8,8.7-26.7c1.7-7.7,5.2-15.9,2.3-24.5c-5.8-0.7-11.7,3.3-17.8,1.9c-8-1.9-16-0.6-23.9-0.6
		c-6.2,0-12.5,0.8-18.8,0.7c-7.6-0.1-15.2-0.5-22.8-1.4c-5.1-0.6-10.7-0.3-16-0.5c-16.1-0.7-32.3-1.3-47.9-4.5
		c-9.6-2-14.4,1.7-20.9,6.9c-4.1,3.3-9,6.4-14.8,7.9c-7.3,1.9-14,6.2-20.6,9.9c-10.7,5.9-21.8,10.9-32.6,16.4
		c-1.8,0.9-3.6,0.8-5.4,1c-12,1.8-19.4,10.7-26.8,18.7c-3.3,3.5-5.3,9.9-3.9,15.8c1.3,5.4,0.8,10.9,2.8,16.4
		c2.1,5.8,6.5,9.2,10.5,13.3c0.4,0.4,1.2,0.8,1.8,0.8c7.2-0.7,11.1,6.2,17.1,7.7c7.5,1.9,14.5,5.5,22.1,6.8c2.4,0.4,6,1.6,5.3,2.8
		c-1.2,2-2.3,5.5-6.1,5.3c-4.6-0.3-9-0.2-13.3-2.4c-5.4-2.7-11.2-5-17-6.6c-4-1.1-4.9-5.6-9.4-6.4c-11.6-2.2-17.5-9.6-21.2-21
		c-1.9-5.9-3.1-12-2.9-17.5c0.2-5.3,0.7-11.3,4-16.6c5.9-9.3,14.6-14.7,23.3-20.7c5-3.5,10.6-3.8,16.1-4.8c2.3-0.4,3.5-2.4,5.6-2.9
		c9.5-2.2,16.7-9.3,25.6-12.6c8-3,15.2-7.6,23.7-9.9c6.7-1.8,13.5-5.2,18.7-11.5c-5.1,0.3-9.3-1.3-13.3-3.4
		c-1.7-0.9-3.8-2.6-3.1-3.9c1.9-3.6-1.5-7.7,1.3-11c0.5-0.5,0.4-1.6,0.4-2.4c-0.1-10.4,4.7-19.4,7.4-29c2.4-8.5,7.7-15.4,10.1-23.4
		c2.4-8,6.3-15.8,6.6-24.4c0.1-1.3,1-2.8,1.8-3.9c0.8-1.3,2-2.3,3.8-1.5c1.9,0.9,0.6,2.4,0.3,3.4c-4.1,14.8-8,29.7-14.3,43.9
		c-4,8.9-6.8,18.6-10.1,27.9c-1.6,4.5-1.3,9.7-3.6,14.1c-1.2,2.3,1.6,2.3,2.3,2.8c4.1,2.8,8.9,3.5,13.6,4.7c7.1,1.8,14.7,1,21.4,4.5
		c1.4,0.7,3.4,0.3,4.9,0.2c8.7-0.5,17.1,1.6,25.6,2c7.8,0.4,15.6,1.4,23.4,1.5c12.3,0.1,24.6,1.5,36.9,2.5c0.9,0.1,1.5,0,2.3-0.5
		c4.2-2.6,8.8-1.1,13.1-1.6c8.7-1,17.4,1.4,26.3-1.1c6.4-1.9,13.7-0.5,20.5-2.3c3.3-0.9,3.4-1.5,3.1-4.8c-0.6-6.4-0.6-12.9-1.3-19.3
		c-2.1-19.1-1.7-38.4-4.8-57.5c-1.5-9.4-1.6-19.2-2.9-28.6c-1-7.2-0.8-13.9,0.8-20.5c2.2-9.3,1.6-17.9-1.7-26.7
		c-1.2-3.3-0.4-7.2-0.5-10.9c-0.3-5.9-0.6-11.9-0.6-17.8c0-7-0.2-14.3,0.9-21.3c1-6.4-0.6-13,1.5-19.4c0.3-1-1.4-2.5-1.8-3.8
		c-2.9-9.4-3.3-18.9-3.3-28.7c0-4.8-2.1-9.5-1.8-14.5c1.1-16.8,0.2-33.6,1.4-50.4c0.6-8.9,0.9-17.8,1-26.6c0.1-8.5-0.1-17.4-2.1-26
		c-1-4.5-0.9-9.2-1.1-13.8c-0.3-7.5-1.9-14.6-3.8-21.7c-2.1-7.8-1.4-15.6-0.7-23.5c0.6-7.4,1.2-14.7,2.1-22.1c1-7.6,3.2-15,3.6-22.8
		c0.4-6.7,2.3-13.4,3.8-20c0.8-3.4-0.2-8.2-0.4-12.3c-0.6-13,2.4-25.7,3.5-38.5c0.6-7.3-0.4-14.7,0.8-21.7
		c1.7-9.4,1.6-18.9,3.3-28.2c0.6-3.4,0.2-6.3-1.6-9.7c-2.9-5.7-6.3-11.5-5.2-18.7c0.6-3.4-2.9-6.2-2.8-9.7c0.2-8.3-5-16.1-2.2-24.6
		c0.1-0.2-0.1-0.6-0.3-0.9c-8-15.7-9.9-32.7-9.5-50c0-0.9-2.1-3,1-3.1c2,0,3.7,0.2,3.9,2.7c0.4,7.5,2.1,14.9,2.7,22.4
		c0.5,5.8,3.5,10.5,4.4,16c2.1,13,4.4,26,7,38.9c1,5.1,3.1,10,3,15.3c0,1.3,0.8,2,1.9,2.6c2.7,1.5,3.9,4.3,4,6.9
		c0.2,5.4,2.3,10.2,4.2,15c1.1,2.8,1.2,5.6,0.7,8.3c-1.2,7.6-0.9,15.1-0.1,22.8c1.7,15.3,1.9,30.7,0.7,46.2
		c-0.2,2.7-0.3,5.7,0.7,8.1c3.1,7.5,1.5,15.9,4.3,23c2,5.1,3.5,10.5,6.5,15.4c5.1,8.1,7.2,17.8,13.1,25.6
		c3.4,4.5,5.2,10.4,12.1,11.4C453.2,1527,455.7,1525.6,457.8,1527.8z"/>
	<path class="st13" d="M235.8,2021.8c11.9,1.2,22.5-0.7,33,0.2c6.2,0.6,11.1-2.5,16.1-5.1c11.6-6,22.5-13.3,32.9-21.3
		c2.2-1.7,4.9-2.6,7.7-2.7c2-0.1,4.1-0.2,4.4,2.7c0.1,0.6,0.5,1.5,0.9,1.6c5.9,1.9,4,9.3,8.6,12.2c0.3,0.2,1.1,3.2-0.5,4.4
		c-5.1,3.9-9.9,8.4-16.5,10.3c-3.1,0.9-5.7,4-8.4,6.2c-8.5,6.6-18.6,10-28,14.7c-7.4,3.6-14.8,1.4-22.3,1.2
		c-6.6-0.2-13.5-1.5-19.7-0.5c-4.6,0.7-10.5,2.7-14.4,6.5c-3.3,3.2-8,3.1-11.5,6c-3.1,2.5-6.3,4.8-8,8.4c-1.9,4-4.8,6.9-8.5,9.3
		c-1.8,1.1-4,0.5-4.4-0.9c-1.6-5.3-6.4-6.2-10.2-8.4c-3-1.7-5.5-3.5-5.9-6.9c-0.4-3.6,2.7-4.9,5-6.7c1.3-1,2.9-2,3.6-3.3
		c2.8-6.1,8.6-8.7,13.6-12.3c2.8-2,5.4-4.3,8.2-6.2C219.1,2025.8,227.8,2022.9,235.8,2021.8z M244.2,2031.4c-10.7-3-20.6,1.3-29.9,7
		c-6.4,3.9-13.7,6.9-17.4,14.2c-1.1,2.2-4.5,2.7-4.1,6.1c0.4,3.8,4.5,2.4,6,4.7c1.7,2.7,3.4,1.3,4.6-0.5c1.4-2.1,2.1-5.1,4-6.5
		c9.1-6.8,19.2-12.3,29.4-17.2c11-5.2,22.8-0.8,34.2-0.9c6.5,0,12.8,0,18.3-3.6c2.8-1.8,5.6-3.4,8.6-4.7c10-4.5,18.3-12,28.4-16.3
		c2.9-1.3,3.7-3.8,0.6-6.2c-0.6-0.5-1.4-1.1-1.7-1.8c-1.5-3.8-3.2-2.6-6-1c-7,4.2-13,10.2-20.3,13.4c-7.2,3.1-13.1,8.2-20.4,11
		c-1.3,0.5-2.5,0.6-3.8,0.9C264.9,2032.2,254.9,2029.8,244.2,2031.4z"/>
	<path class="st13" d="M615,2100.1c-6.9-0.9-12.3-3.7-17.3-7c-5.6-3.7-11.6-6.6-17.7-9.1c-8-3.3-15.7-7.1-22.8-12.2
		c-5-3.6-11.1-3.6-16.7-4.8c-8.5-1.7-17.2-0.9-25.8-1.1c-9.9-0.2-18.4-4.2-25.7-10.5c-1.9-1.6-3.9-3.3-5.8-5.1c-4-3.9-3.4-8-1-11.7
		c2.6-3.9,5.8-7.8,11.4-8c1.9-0.1,3.3,0.1,5,1.3c6.8,5,14.1,9.2,22.5,11.2c1.9,0.5,3.8,0.2,5.1-0.3c10.5-4.1,19.3,0.4,28,5.2
		c14.6,8.1,29.9,14.5,45.5,19.8c7.7,2.6,14.3,7.5,22.3,9.2c1.8,0.4,2.3,2,1.8,3.6c-1.7,5.8-3.4,11.5-5.4,17.1
		C617.8,2099.3,616.2,2100.4,615,2100.1z M495.7,2042c-1.4-0.1-2.8-0.1-3.4,1.4c-0.6,1.4-0.7,2.9,0.7,4.1c3,2.7,5.7,5.6,9.9,6.6
		c6.6,1.6,12.8,3.7,20.2,2.5c5-0.8,11,0.6,16.5,1.1c8.5,0.8,16.4,3.6,23.5,7.3c8.6,4.4,16.8,9.6,26.1,12.6c2,0.6,3.8-0.2,4.4-1.2
		c1.1-1.9-1.3-2.2-2.4-2.8c-5.2-3-11.2-3.9-16.6-6.9c-6.7-3.7-14.4-5.2-21-9.5c-8.3-5.4-17.3-8-27.5-5.5c-3,0.7-6.4,0.8-9.7-0.6
		c-5.6-2.4-11.3-4.5-16.5-7.7C498.6,2042.7,497.3,2041.7,495.7,2042z M594.7,2078.7c8.4,8.8,8.7,8.6,12.9,10.4
		c2.9,1.2,3.8,0.2,4.7-2.1c0.9-2.3,0.8-3.8-1.8-5.2C605.7,2079.1,600.9,2076.9,594.7,2078.7z"/>
	<path class="st13" d="M293.5,1736.3c-11.5-5.5-20-14.3-29.1-23.1c-0.9,4.9-2,9.4-2.4,13.9c-1.4,13.7-3.8,27.2-4.8,40.9
		c-1,13.9-1.8,27.9-1.3,41.8c0.4,13.2-1.1,26.1-4.5,39c-2,7.5-1.9,15.6-2.6,23.5c-0.7,7.9-0.6,15.9-0.8,23.8c0,0.8,0,1.9-1.1,1.7
		c-0.6-0.1-1.6-1-1.7-1.6c-0.7-8.8-2.7-17.7-0.1-26.5c1-3.4-0.1-6.8-0.3-10.1c-0.4-7.2,2.2-13.7,3.5-20.5c1.5-7.8,2.2-15.7,2.4-23.5
		c0.2-11.1,0.9-22.2,1.5-33.3c0.5-9,1.6-18.1,2.2-27.1c0.4-5.5,2.4-11.2,0.8-17.1c-1.1-4.1,2.2-8.4,1.9-13
		c-0.4-5.5,0.1-10.9-1.4-16.5c-1.1-4-0.6-8.7-1.4-13.2c-1-5.3-2.5-10.4-3.9-15.5c-2.3-8.4-5.7-16.4-7.8-24.9
		c-1.5-5.9-3.8-11.7-4.8-17.8c-0.7-4.3-3.6-8.6-1-13.2c0.3-0.5,0.2-1.3,0.1-2c-3.1-17.7,0.5-35.5,0-53.2c-0.1-1.8,0.7-3.2,1.4-4.6
		c1.5-2.8,2.5-5.8,2.5-8.8c-0.1-8.6,1.8-17.2,1.1-25.8c-0.2-2.2-0.3-4.6,3-4.5c3.3,0,2.9,2.5,2.9,4.6c0.2,10.6,0.8,21.4-2.2,31.6
		c-4.7,16-5,32.2-4.7,48.6c0.2,11,0.6,22,3,32.8c0.7,3.1,3.3,5.9,3.7,9c1,8,4.8,15.1,6.1,23c0.7,4.2,2.3,8.1,4.2,11.8
		c2.2,4.3,1,9.3,4.1,13.3c8.9,11.5,17.3,23.4,29.1,32.4C292.4,1733,294,1733.6,293.5,1736.3z"/>
	<path class="st13" d="M578,1462c-2.5,1.3-4.4,3.4-5.9,5.6c-1,1.5-2,1.5-3.3,1.3c-1.6-0.3-2.1-1.5-2-3c0.4-4.5,0.4-9.2,3.1-13
		c4-5.8,6.4-12.6,10.2-18.3c2.5-3.9,1.9-8.3,4.3-11.9c0.4-0.6,0.3-1.7,0.1-2.3c-2.5-6.1,1.4-11.5,2-17.2c1.3-12.1,7.2-23.2,8.4-35.5
		c0.9-9.1-0.7-17.9-0.9-26.9c-0.3-8.5,0.5-17.1,1.7-25.6c0.6-4.4,0.2-8.9,0.9-13.3c0.6-4.1,1.2-7.9,2.6-11.9
		c1.1-3.3-0.8-7.1,0.5-10.9c2.4-7.3,1.4-15.1,1.2-22.7c-0.1-4.2,2-8.1,2.1-12.5c0.2-7.7-0.9-15.4-0.2-23.1c0.5-6,0.4-12.1,2.5-17.9
		c0.9-2.4,0.8-5,0.1-7.4c-1.7-6.3-0.8-12.5,0-18.7c0.2-1.7,0.4-4,3-3.7c2.6,0.3,2.6,2.6,2.2,4.3c-2.5,9.2,1.5,18.5-0.1,27.6
		c-2.3,13.7-0.6,27.5-2.2,41.1c-1.8,15.4-2.8,31-5.3,46.3c-1.5,8.9-2,18.1-2.3,27.1c-0.3,9.9-1.8,19.8-0.1,29.6
		c2.8,16.1-3.1,30.9-6.4,46.1c-2,9.2-3.7,18.5-4.8,28c-1.5,13.1-0.1,26.4-3.7,39.3c-0.4,1.4-0.8,2.8-1.4,4.1
		c-0.9,2.1-2.5,3.8-4.8,3.2c-2.8-0.8-1.8-2.9-1-4.8C579.1,1464.2,579.2,1463,578,1462z"/>
	<path class="st13" d="M181.7,2103c-0.9-0.7-3.1,1.3-3.1-1.3c0-2.3,0.4-5.4,3.1-5.4c6.9-0.2,12.9-3.6,19.2-5.5
		c10.2-3.2,20.1-7.3,30.8-8.6c5.6-0.7,10-4,14.6-6.5c7.5-4,16.2-3.8,23.6-7.7c10.2-5.4,21.7-6.9,32.2-11.3
		c11.4-4.8,23.3-7.9,34.8-12.3c2.3-0.9,4.8,0.3,6.9-0.5c10.8-4.2,22.3-5.4,33.4-7.9c0.3-0.1,0.8,0,1-0.2c2-2.4,5.6-1.9,6.3-0.6
		c1.3,2.4,0.1,5.8-2.1,7.5c-2.1,1.6-4.4,3.3-7.4,3.3c-13.6-0.2-26.5,3.3-39.3,7.5c-9.2,3.1-18.7,5.2-27.8,8.5
		c-13.3,4.8-26.9,8.5-40.1,13.9c-11.3,4.6-23,9.6-34.8,11.9c-11,2.1-21,6.8-31.7,9.2c-5.1,1.1-9.6,4-14.7,5.2
		C184.9,2102.6,183.4,2102.9,181.7,2103z"/>
	<path class="st13" d="M440.3,1724.1c-0.6,9.6,2,18.7,2.8,28.1c0.8,10.1,1.2,20.2,0.7,30.3c-0.6,12.8-2.3,25.5-3.1,38.3
		c-0.2,3.8-1.9,6.9-2.8,10.3c-2.8,10.4-0.6,20.8-0.1,31.2c0.2,3.4,0.3,6.8-0.6,10.3c-1.3,5,1.5,10.1,0.7,15.2
		c-1.4,10,3.5,19.3,3.6,29.2c0.1,6.4,1.7,12.7,2.8,18.9c1.8,9.7,2.8,19.6,4.7,29.3c1.9,10.3,5.1,20.8,3.9,31.7
		c-0.3,2.4-1.6,4.1-2.8,6.2c-1.6-1.3-2.1-2.7-2.2-4.4c-0.6-15.1-3.9-29.9-5.9-44.9c-1.9-14.4-5.9-28.4-6.1-43c-0.1-5-3-9.5-3-14.8
		c-0.1-6.3-0.3-12.6-0.6-18.9c-0.7-14.1-0.2-28.2-0.1-42.4c0-1.7,0.4-3.6,1.1-5.2c4.7-10.9,3.6-22.6,4.8-34
		c1.2-11.1,1.6-22.2,0.7-33.3c-0.7-8.2,0.6-16.5-1.5-24.7C436.1,1733.3,437.5,1728.4,440.3,1724.1z"/>
	<path class="st13" d="M312.5,113.3c-1.8-1-2.6,0.5-3.9,1.3c-1.1,0.6-2.7,1-3.5-0.4c-0.6-1.1,0.1-2.3,1.2-2.9
		c4.5-2.4,8.9-5.1,14.1-6.3c6.3-1.5,12.6-3.2,19-4.4c3.6-0.7,6.4,0.8,9.7,0.7c1.7,0,2.1,1.9,1.8,3.5c-0.4,2.1-1.3,3.8-3.9,3.3
		c-3.3-0.6-6.6-0.8-10.4,0.7c3.3,1.6,6.1,2.9,9,4.3c4.6,2.1,5.9,5.9,5.4,10.6c-0.2,1.7-1.4,2.8-2.7,3.2c-1.3,0.4-1.7-1-2.4-2
		c-6.7-9.2-23.5-10.7-32.2-3.1c-2.7,2.4-5.7,4.3-8.8,6.2c-7.4,4.8-12.1,10.4-13.3,20.1c-2,16.8-10.7,29.5-28,34.7
		c-6.8,2.1-11.8,0-17.6-7.9c1.1-1.6,3-1.2,4-0.7c9.3,4.9,16.6,0.5,23.3-5.1c5.2-4.4,8.8-9.6,9.9-16.9c1.7-10.4,5.7-20.6,13.5-27.9
		c3.6-3.3,8.6-5.7,13.1-8.2C311,115.4,312,114.6,312.5,113.3z"/>
	<path class="st13" d="M233.7,139c-2,0-4,0.1-6,0c-2.1-0.1-3.6-1.4-3.7-3.3c-0.1-2.9,2.5-1.6,3.7-1.6c9.6,0.5,18.3-1.5,26.5-6.8
		c6.6-4.3,10.1-11.2,15.2-16.6c0.2-0.2,0.2-0.6,0.3-0.9c0.7-12.3,8.1-21.2,17.1-27.8c12.2-9,25.8-16.4,42.2-11.3
		c1.1,0.3,2.3,0.4,3.4,0.3c7.6-0.7,14.6,1.7,21.4,4.2c4.5,1.7,8.9,4.8,9.8,10.4c0.2,1.2,0.6,2.9-0.9,3.6c-1.3,0.7-2.5-0.3-3.4-1.1
		c-6.5-5.8-14.6-7.9-22.8-9.1c-13.7-1.9-27.1-1.5-39.9,5.3c-11.5,6.1-16.9,16.3-21,27.7c-1.7,4.6-4.5,8.7-7.9,12.2
		C258.7,133.9,247.3,139,233.7,139z"/>
	<path class="st13" d="M495.7,143.9c-9.2-6.5-15.1-15.2-19.7-24.9c-2-4.3-3.8-9-4.3-13.3c-1.1-8.4-5.7-15.1-9.8-21.5
		c-3.5-5.5-9.1-10.7-16.6-12.6c-7.4-1.9-14.2-6-22.3-4.6c-1.1,0.2-2.8-0.3-3.4,0.3c-4.7,5.1-11.4,5.9-17.3,8.5
		c-4.2,1.9-9.3,1.6-13,5c-0.5,0.5-1.8,0.4-2.1-0.5c-0.3-0.9-0.4-2.4,0.1-2.8c3.4-3.3,4.4-8.1,11-9.2c5.4-0.9,11.5-2.4,17.1-6.2
		c5.5-3.7,13.8-3.2,20.9-0.4c4.5,1.8,9,3.8,13.8,4.8c3,0.6,5.3,2.3,6.9,4.9c0.4,0.7,0.7,1.6,1.3,2c14.8,9.4,18.5,25.1,22.8,40.4
		c2.5,9,5,18,12.6,24.4C495.1,139.5,496.1,141.3,495.7,143.9z"/>
	<path class="st13" d="M262.7,1239.2c2.5,6.1,8.1,8.4,11.6,12.6c3,3.5,6.6,6.5,9.9,9.8c5.7,5.6,11,12.5,20.4,12.5
		c1,0,2.1-0.1,2.2,1.3c0.1,1.4-0.9,1.5-1.9,1.7c-4.8,0.7-8.8,1.1-14-1.5c-9.3-4.7-14.2-13.2-21.4-19.6c-3.9-3.4-9.2-5.2-11.6-10.4
		c-1.3-2.8-3-5.3-3.1-8.6c-0.1-2.7-0.7-6.1-3.8-6.8c-4.2-1-6.6-4.4-10-6.2c-1.2-0.6-1.2-1.5-0.8-2.4c0.4-0.9,1.3-2,2.3-1.3
		c4.9,3.6,11.9,2.3,16.4,7.6c2,2.3,6.8,2.8,10.5,3c15,0.7,30-0.5,44.9-2.8c1.1-0.2,3-0.9,3.4,0.8c0.4,1.6-1.3,1.8-2.7,2.2
		C297.9,1235.3,280.8,1238.6,262.7,1239.2z"/>
	<path class="st13" d="M605,1660.6c-1.1,12.2,0.8,23.3,2.3,34.2c2,14.5,3.6,29,4.2,43.4c0.6,14.6,3.3,29,2.9,43.8
		c-0.2,7,0.2,14.3,0.3,21.4c0.1,7.5-0.8,15.2-0.8,22.8c0,1.5-0.7,2.8-2.3,2.7c-2.2-0.1-3.6-1.5-3.7-3.9c-0.3-5.5,1-10.8,1.6-16.2
		c0.9-8.4,2.3-16.8-1.1-25c-0.2-0.4-0.4-1-0.3-1.4c2.4-6,0.3-12.2,0.8-18.3c0.5-6.1-2.2-11.7-2.4-17.9c-0.3-8.2-1.9-16.5-1.4-24.6
		c0.5-7.8-3.2-14.9-2.2-22.4c0.9-7.1-1.2-13.7-2.3-20.5c-1.5-9-0.2-17.9-0.7-26.8c-0.1-1.7,0.8-2.9,2.6-2.8c1.8,0.1,1.4,1.7,1.3,2.7
		C603.4,1655.1,605.9,1658.2,605,1660.6z"/>
	<path class="st13" d="M583.6,1501c-2.4,5.7-0.3,11.3-1.5,16.8c-2.1,9.3-2.2,18.9,0.5,28.3c0.3,1.1,0.3,2.2,1.1,3.3
		c8,10.4,11.1,22.5,12.3,35.4c0.7,7.8,1.8,15.6,3.6,23.2c0.7,2.9-0.9,5.2-0.4,8.1c1.2,7,3.2,13.9,2.7,21.1c-0.1,1,0.1,2.1-0.2,3
		c-0.4,1.3-1.4,2.6-2.7,2.6c-1.5,0-1.8-1.8-2-2.9c-0.5-2.6-0.4-5.3-0.5-7.9c-0.3-6.6-2.7-12.8-2.7-19.4c0-5.1,0.4-10.1-2.5-14.9
		c-2.1-3.4,1.3-7.4-0.3-11.5c-2.7-7-3-14.8-6.1-21.9c-1.9-4.3-3.6-8.3-6.8-11.8c-3.4-3.7-2.6-8.8-3-13.2c-0.7-7.8-1.3-15.8,2.2-23.4
		c1.2-2.7,0-5.6,0.6-8.4C578.6,1504.7,578.5,1500.9,583.6,1501z"/>
	<path class="st13" d="M531.8,1192c-9-0.2-18.6-0.3-27.9,2.8c-2.7,0.9-6.2,1-8.9,0.1c-7.9-2.6-14.3,1.4-21,4.1
		c-5.1,2.1-9.9,4.7-15.2,6.3c-4.7,1.4-7.4,6.3-12,8.7c-3.3,1.7-7,3.6-9.4,7c-0.8,1.1-2.4,2.3-3.7,1.2c-1.6-1.4-1-3.1,0.3-4.8
		c3.2-4.1,8.4-5.8,11.9-9.6c2.7-3,6-6.1,9.7-7.6c7.7-3.3,14.5-8.8,23.3-9.8c2.4-0.3,4.7-2.1,7-3.3c1.7-0.9,4.1-1.8,5.1-0.7
		c6.5,7,13.4,2.3,19.9,0.7c8.3-2,16.5,0,24.7,0.5c0.9,0.1,4.1-0.4,3.6,2.6c-0.4,2.7-2.7,1.8-4.3,1.9C534,1192,533.2,1192,531.8,1192
		z"/>
	<path class="st13" d="M342.7,301c-8.4-0.3-16-4.2-17.7-12.8c-0.8-4,2.9-13,6.1-12.5c4.5,0.6,8.1-2.3,12.3-1.7
		c3.8,0.6,7.3-1.3,10.8-2.3c2.7-0.8,2.2-4.8,3.9-7c1-1.3,0.9-4.3,3.4-3.4c2.5,0.9,2.9,3.4,2.3,5.9c-1.3,5.3-4.8,9-9.7,10.6
		c-5.1,1.6-9.8,5.2-15.8,3.5c-1.4-0.4-4.2,1-5,2.4c-1.1,1.7,0.3,4.2,2.1,4.9c5.1,2,9.6,5.2,16.1,3.1c3.3-1.1,7.6-1.6,11.5-1.7
		c1.9-0.1,3.7,0,4,2.6c0.3,2.1-0.4,3.3-2.4,4.2c-3.6,1.7-7.5,2.8-11.4,3C349.3,299.9,345.6,300.8,342.7,301z"/>
	<path class="st13" d="M410.1,213.2c1,3.1-1.8,6.7-2.7,10.6c-0.8,3.5-8.5,5.2-11.7,3.6c-9.1-4.4-9.6-15.8-8.4-25
		c0.2-1.2,0.4-2.5,0.7-3.8c0.3-2,2-4.2,3.4-3.3c3.7,2.3,5.8-0.5,8.5-1.7c2.8-1.2,4.7-1,6.4,2.8C408.5,201.4,409.6,206.5,410.1,213.2
		z M402.4,201.6c-1.8,3.5-2.5,6-1.5,9c0.4,1.3,1.1,1.6,2.1,1.3c1.1-0.3,1.2-1.4,0.8-2C402.2,207.6,403.3,205,402.4,201.6z"/>
	<path class="st13" d="M208.3,845.7c1.5,3.8-0.6,6.2-2,8.3c-7.4,11.2-11.7,23.9-18.1,35.6c-7.6,13.9-13.5,28.7-19.1,43.5
		c-1.1,3-3.2,3.7-5,3.2c-2-0.5-1.1-2.8-0.6-4.7c3.1-10.6,7.9-20.6,12.1-30.7c2.5-6.1,5-12.2,8.3-18c6.4-11.2,12.8-22.4,19.4-33.5
		C204.2,847.9,206.3,847.1,208.3,845.7z"/>
	<path class="st13" d="M776.9,714.4c-2.3,4.3-1.2,10-1.5,15.3c-0.3,5.9-2.3,13.3,5.2,17.3c2.5,1.3,1.6,3.4,0,4.8
		c-2,1.7-2.4,3.5-1.7,5.8c1,3.7,0.7,7.3,0.1,11c-0.3,1.7-0.5,3.9-2,4c-2.2,0.3-2.5-2.3-3-3.9c-1.2-4-2.3-8.1-3-12.2
		c-0.5-2.7-1.1-4.1-4.3-4.8c-5.7-1.2-6.5-6-3.2-11c2.8-4.3,4-9.6,4.3-14.8c0.3-5,2.6-9.4,3.4-14.2c0.3-1.5,1.7-3,3.7-2.6
		C777.3,709.7,776.8,711.8,776.9,714.4z"/>
	<path class="st13" d="M330.8,217.4c1.8,5.3-2.9,8.4-6,11.8c-2.1,2.3-5.6,0.9-7.4-1.3c-2.2-2.7-3.9-6-5.5-9.1
		c-1.4-2.7-1.8-5.7,0.2-8.3c1.9-2.4,0.2-5.1,1.2-7.9c1.9-5.1,6.5-3.9,9.7-5.1c2-0.7,3.7,3.2,4,5.4
		C327.7,207.7,331.5,211.7,330.8,217.4z"/>
	<path class="st13" d="M490.4,211.9c3.1-1,4,2.4,5,4.4c1,2,2.3,4.8,0.3,7.3c-1.2,1.6-2.8,1.8-4.4,1c-1.4-0.6-2.8-3-4-0.9
		c-1,1.6-1.1,4.2,0.8,6c1.2,1.1,2.4,2.3,3.5,3.5c7.1,7.1,6.2,14.2-2.3,20c-2.9,2-6,3.3-9,4.9c-1.4,0.8-3.1,1.4-4,0.2
		c-1-1.4-0.8-3.3,0.5-5c2.3-3,6.2-3.5,8.7-6.4c3.8-4.5,3.9-4.8-0.7-8.6c-8.9-7.3-5-19.7,2-25.8C487.7,211.8,488.7,212.1,490.4,211.9
		z"/>
	<path class="st13" d="M542.1,1210.6c-5.2,5.2-11.8,4.8-17.7,5.1c-12.5,0.8-24.6,2.8-36.3,7.2c-3.2,1.2-6.5,2.1-9.8,3
		c-1.4,0.4-3.1,2-4.2-0.4c-1-2.3,0.8-3.6,2.3-4.3c4-1.9,8-3.5,12.1-5.1c3.9-1.5,8.1-2.6,11.9-4.5c2.9-1.4,5.5,0.4,8.5-0.3
		c8-1.7,16.2-2.4,24.5-0.6C536,1211.4,538.8,1209.1,542.1,1210.6z"/>
	<path class="st13" d="M365.4,350c1.1,0.4,2,0.8,2.9,1c10.5,1.9,17-1.4,22.7-10.9c2-3.2,4.4-5.8,4.1-10.1c-0.2-2.9,3.6-2.4,5.2-2.3
		c2.3,0.1,2.3,3.1,1.7,4.6c-2,6-4.2,12.1-8.8,16.8c-3.1,3.1-6.6,5.9-10.3,8.3c-3.7,2.4-8.2,3.4-12.4,1.4c-2.5-1.2-4.5,1-7-0.2
		c-2.5-1.2-4-2-3.5-4.9C360.5,350.5,363.1,350.4,365.4,350z"/>
	<path class="st13" d="M432.9,175c0.8,1.9,0.2,2.5-0.6,2.8c-0.9,0.3-1.9,0.5-2.4-0.8c-0.6-1.4-1.6-2.6-1.9-4
		c-2.1-9.3-11.1-12.9-19.2-14.1c-3.6-0.5-5.4,2-8,3.4c-1.7,1-3.9,4.1-6.1,0.8c-1.8-2.8,1.1-4.2,2.3-6.3c3.8-6.9,10.5-5.2,16-5.6
		c9.9-0.6,19.4,9.5,19.9,19.7C432.9,172.6,432.9,174.2,432.9,175z"/>
	<path class="st13" d="M514.9,950.9c-0.5,4-0.6,8.2-3.8,11.3c-3,3-5.3,2.7-7.3-0.9c-4-7.6-4.3-15.6-2.7-23.7
		c0.4-1.9,3.3-2.2,4.1-1.1C508.7,941.1,515.5,943.6,514.9,950.9z"/>
	<path class="st13" d="M516.9,1041.5c0,3.7,0.7,7.4-3.1,10.3c-2.5,1.9-4.5,1.3-5.2-0.8c-2-5.7-4.8-11.2-4.8-17.6
		c0-4.3,1.9-7.4,5.5-8.1c4.3-0.8,5.1,3.6,6.5,6.6C517.3,1034.9,516.9,1038.2,516.9,1041.5z"/>
	<path class="st13" d="M369.5,105.9c-1.4-2.1-0.4-4.3,0.8-5.5c6.2-6.1,11.6-13,20.3-16.5c9-3.6,18.5-4.8,27.8-6.9
		c1.1-0.2,2.4-0.2,3.2,1.4c-2.7,1.9-6,2.8-9.1,3.4c-13.3,2.8-25.7,7.2-34.9,17.9C375.3,102.3,373.2,105.3,369.5,105.9z"/>
	<path class="st13" d="M574.3,1255.3c-5.4-3.8-8.4-9-12.2-13.5c-7.3-9-13.6-18.6-17.3-29.8c-0.6-1.7-1.8-3.4,0.5-4.7
		c2.3-1.3,2.6,1.2,3.6,2.2c4.5,4.6,4.6,11.4,8,16.6c5.6,8.4,9.8,17.7,17.1,24.9C575.3,1252.3,574.9,1253.5,574.3,1255.3z"/>
	<path class="st13" d="M522.9,1113.7c-1,3.1,1.7,7.3-1.8,10.7c-1.8,1.7-2.8,1.7-4.4-0.1c-4.6-5.4-4.1-11.8-3.4-18.1
		c0.1-1.4,1.2-2.8,1-4.1c-0.5-2.7,0.9-4.2,3-4.7c2.6-0.6,3.7,1.8,4.5,3.6C523.6,1104.8,522.8,1109,522.9,1113.7z"/>
	<path class="st13" d="M496.7,162c-10-2.7-21.9-4.4-28-16.4c-1-1.9-2.6-3.4-3.6-5.2c-0.7-1.3-0.6-3.1,0.9-4c2.1-1.2,2.1,1.2,2.6,2
		c6.8,11.3,17.6,16.4,29.7,19.6c1.9,0.5,4.4,0.1,5.3,2.4C504,161.4,502,162,496.7,162z"/>
	<path class="st13" d="M233.5,171.8c-1,0.3-2.1-0.1-2.1-1.3c0-0.9,0.9-0.7,1.7-0.9c11.4-2.2,21.1-7.7,29.8-15.2
		c0.5-0.4,0.9-1.1,0.9-1.7c0.2-1.7,1.1-3.1,2.8-2.6c1.5,0.4,3.1,1.4,4,2.6c0.8,1.2,0.3,2.8-0.9,4c-4.6,4.5-10.2,7.7-15.8,10.6
		C247.6,170.7,240.5,171.2,233.5,171.8z"/>
	<path class="st13" d="M355.9,92.5c-2.1,1.7-3.7,2.5-5.8,2.5c-10.7-0.1-21.3,0-32-0.1c-1,0-3.2,1-2.9-1.3c0.3-2.1,2-0.9,3.1-0.5
		c0.8,0.3,1.3,0.5,2.1-0.1c9.3-6.1,19.7-4.4,29.9-4C352.7,89.1,353.4,91.9,355.9,92.5z"/>
	<path class="st13" d="M584,1488.3c-0.4-3.4,0-6.3,1.8-8.9c3.3-4.8,0-10.5,2.1-15.5c0.4-1,0.3-2.5,1.8-2.3c1.3,0.2,1.6,1.8,1.7,2.8
		c0.7,11.9-1.2,23.5-3.4,35.2c-0.2,1.1-0.6,2.1-1.7,2c-0.7,0-1.4-0.9-1.3-1.9C585.5,1495.6,583,1491.9,584,1488.3z"/>
	<path class="st13" d="M324.2,160.3c-4.3,1.9-7.9-1.1-12,0.3c-5.4,1.8-8.8,6.2-13.7,8.3c-1.1,0.5-1.7,1.5-2.9,0.2
		c-1-1.1,0-2.1,0.4-2.6c3.9-4.7,8.1-9,13-12.6c2.9-2.1,6.2-0.5,9.4-0.2C323,154.3,321.6,158.6,324.2,160.3z"/>
	<path class="st13" d="M382.9,1173.1c-0.6,5-1.2,11-2.2,16.9c-0.2,1.5-1.4,3.8-3.2,3.6c-2-0.2-1.5-2.5-1.6-4.1
		c-0.4-6.4,0.7-12.8-0.8-19.2c-0.5-2.4,0.5-6.6,3.4-6.7c3.1-0.1,4.5,3.2,4.4,6.5C382.9,1170.8,382.9,1171.4,382.9,1173.1z"/>
	<path class="st13" d="M483.6,172.4c-6.6-3.4-12.7-5.8-18.3-10.5c-4.4-3.7-5.1-8.4-7.9-12.2c-1.1-1.6-1.4-4.5,1.4-5.5
		c2.5-0.9,2.9,1.8,3.3,3.3c2.8,9.8,11.2,14.6,18.5,20.3C482,168.9,483,169.9,483.6,172.4z"/>
	<path class="st13" d="M241.5,156c-0.8-0.1-1.7-0.3-1.4-1.1c0.4-1.2,1-3,1.9-3.3c4-1,5.8-4.8,8.8-6.9c3.8-2.7,7.1-5.7,9.7-9.6
		c0.8-1.3,2.2-3.1,4-1.6c1.2,1,1.7,2.7,0.9,4.8c-1.8,5.1-6.1,7.5-9.9,10.3c-3.9,2.8-8.4,4.7-12.7,7
		C242.3,155.8,241.8,155.9,241.5,156z"/>
	<path class="st13" d="M316.2,945.5c-3.1,7.9-8,11-15.1,10.5c-0.7,0-1.4-0.1-2,0c-2.2,0.6-5,2.1-6-1.1c-0.7-2.5,1.9-4,3.9-5
		C302.9,947.2,309.5,947.8,316.2,945.5z"/>
	<path class="st13" d="M297.3,1082.1c-1.5,0.5-2.4,0.2-3.1-1.3c-0.9-1.8,0.6-2.5,1.5-3.2c4.7-3.5,10.2-5.6,15.4-8.4
		c1.4-0.7,2.7-0.3,3.4,1c0.7,1.4,0.8,3.1-0.7,4C308.7,1077.7,303.5,1081,297.3,1082.1z"/>
	<path class="st13" d="M311.8,1128.1c-1.7,8-4.8,10.6-11.1,11.8c-1,0.2-2.5,0.7-2.8-1.1c-0.1-1-0.5-2.2,1-2.9c2.2-1,3.4-3.5,5.8-4.4
		C307.1,1130.6,309.2,1129.4,311.8,1128.1z"/>
	<path class="st13" d="M630,1039.6c-1.9,3.7-5.2,5.6-8.6,7.5C621.4,1041.4,624.4,1038.8,630,1039.6z"/>
	<path class="st13" d="M423.2,95.9c-0.1-0.5-0.2-0.7-0.1-0.8c0.9-3.1,3.7-3.1,6.1-3.8c0.6-0.2,0.9,0.9,0.7,1.5
		C428.6,96.2,425.6,95.3,423.2,95.9z"/>
	<path class="st13" d="M647.2,850.7c-3.9-9-5.8-18.1-7.5-27.3c-1.5-8.2,0-16.4-1.6-24.6c-0.8-3.7,0.3-7.8,0.9-11.7
		c0.2-1.6,1.6-3.2,3.5-2.9c2.2,0.3,3.4,1.8,3.4,4.2c0.1,8.2,0.4,16.5,0.3,24.7c-0.1,6.1,1.7,11.9,2.1,17.9c0.4,5.4,1,10.7,1.4,16.1
		C649.8,848.6,647.5,849,647.2,850.7z"/>
	<path class="st13" d="M483,603.8c-0.2,4.9-2.5,8-5.8,9.9c-2.2,1.3-4.7-0.2-6.1-2.1c-2.9-4-4-9.4-2.7-13.4c0.9-3-0.7-6.1,1.3-8.9
		c1.1-1.5,2.5-3.4,3.5-2c2.5,3.3,8.1,3.8,8.1,9.4C481.4,599.4,482.5,601.9,483,603.8z"/>
	<path class="st13" d="M615.5,694.9c-3.6-3.4-2.8-7.7-3.4-11.4c-1-6.2-2.7-12.1-4.4-18c-1.2-4.2-0.5-8.5-1.7-12.6
		c-0.2-0.7-0.1-1.7,1.1-1.9c1.4-0.2,2.5,0.1,3.6,1.1c2.7,2.4,2.3,5.8,2.6,8.7c1,8.1,3.9,15.9,3.7,24.2
		C616.9,688.4,616.2,691.3,615.5,694.9z"/>
	<path class="st13" d="M480,680.4c1.6-3.5,0.8-8.8,3.8-13.1c2.2-3.1,5.4-3.1,6.7,0.2c2.5,6.2,0.7,12.5-0.5,18.7
		c-0.4,2-2.4,3.9-4.8,2.7C482.2,687.5,479.5,685.5,480,680.4z"/>
</g>
</svg>
